<?xml version="1.0" encoding="UTF-8" standalone="no"?>
<!DOCTYPE svg PUBLIC "-//W3C//DTD SVG 1.1//EN"
 "http://www.w3.org/Graphics/SVG/1.1/DTD/svg11.dtd">
<!-- Generated by graphviz version 2.42.3 (20191010.1750)
 -->
<!-- Title: %3 Pages: 1 -->
<svg width="134pt" height="383pt"
 viewBox="0.00 0.00 134.08 383.00" xmlns="http://www.w3.org/2000/svg" xmlns:xlink="http://www.w3.org/1999/xlink">
<g id="graph0" class="graph" transform="scale(1 1) rotate(0) translate(4 379)">
<title>%3</title>
<polygon fill="white" stroke="transparent" points="-4,4 -4,-379 130.08,-379 130.08,4 -4,4"/>
<!-- fake -->
<g id="node1" class="node">
<title>fake</title>
</g>
<!-- s0 -->
<g id="node3" class="node">
<title>s0</title>
<ellipse fill="none" stroke="black" cx="40.08" cy="-280" rx="18" ry="18"/>
<ellipse fill="none" stroke="black" cx="40.08" cy="-280" rx="22" ry="22"/>
<text text-anchor="middle" x="40.08" y="-275.8" font-family="Times,serif" font-size="14.00">s0</text>
</g>
<!-- fake&#45;&gt;s0 -->
<g id="edge1" class="edge">
<title>fake&#45;&gt;s0</title>
<path fill="none" stroke="black" stroke-width="2" d="M40.08,-338.98C40.08,-331.15 40.08,-321.61 40.08,-312.54"/>
<polygon fill="black" stroke="black" stroke-width="2" points="43.58,-312.24 40.08,-302.24 36.58,-312.24 43.58,-312.24"/>
</g>
<!-- s3 -->
<g id="node2" class="node">
<title>s3</title>
<ellipse fill="none" stroke="black" cx="48.08" cy="-18" rx="27" ry="18"/>
<text text-anchor="middle" x="48.08" y="-13.8" font-family="Times,serif" font-size="14.00">s3</text>
</g>
<!-- s3&#45;&gt;s0 -->
<g id="edge8" class="edge">
<title>s3&#45;&gt;s0</title>
<path fill="none" stroke="black" d="M39.17,-35.2C22.33,-67.89 -11.19,-144.1 4.08,-208 7.8,-223.58 15.53,-239.6 22.88,-252.47"/>
<polygon fill="black" stroke="black" points="19.97,-254.43 28.09,-261.24 25.99,-250.85 19.97,-254.43"/>
<text text-anchor="middle" x="15.52" y="-142.8" font-family="Times,serif" font-size="14.00">gum</text>
</g>
<!-- s1 -->
<g id="node4" class="node">
<title>s1</title>
<ellipse fill="none" stroke="black" cx="40.08" cy="-190" rx="27" ry="18"/>
<text text-anchor="middle" x="40.08" y="-185.8" font-family="Times,serif" font-size="14.00">s1</text>
</g>
<!-- s0&#45;&gt;s1 -->
<g id="edge2" class="edge">
<title>s0&#45;&gt;s1</title>
<path fill="none" stroke="black" d="M40.08,-257.7C40.08,-245.86 40.08,-230.99 40.08,-218.3"/>
<polygon fill="black" stroke="black" points="43.58,-218.27 40.08,-208.27 36.58,-218.27 43.58,-218.27"/>
<text text-anchor="middle" x="46.69" y="-228.8" font-family="Times,serif" font-size="14.00">5c</text>
</g>
<!-- s2 -->
<g id="node5" class="node">
<title>s2</title>
<ellipse fill="none" stroke="black" cx="99.08" cy="-104" rx="27" ry="18"/>
<text text-anchor="middle" x="99.08" y="-99.8" font-family="Times,serif" font-size="14.00">s2</text>
</g>
<!-- s0&#45;&gt;s2 -->
<g id="edge3" class="edge">
<title>s0&#45;&gt;s2</title>
<path fill="none" stroke="black" d="M50.94,-260.55C58.82,-246.53 69.25,-226.55 76.08,-208 84.61,-184.83 83.72,-178.1 89.08,-154 90.65,-146.94 92.26,-139.28 93.71,-132.17"/>
<polygon fill="black" stroke="black" points="97.16,-132.76 95.71,-122.27 90.3,-131.38 97.16,-132.76"/>
<text text-anchor="middle" x="95.19" y="-185.8" font-family="Times,serif" font-size="14.00">10c</text>
</g>
<!-- s1&#45;&gt;s3 -->
<g id="edge5" class="edge">
<title>s1&#45;&gt;s3</title>
<path fill="none" stroke="black" d="M40.28,-171.86C40.58,-151.41 41.28,-116.19 42.87,-86 43.56,-72.84 44.65,-58.26 45.66,-46.06"/>
<polygon fill="black" stroke="black" points="49.15,-46.32 46.51,-36.06 42.18,-45.72 49.15,-46.32"/>
<text text-anchor="middle" x="53.19" y="-99.8" font-family="Times,serif" font-size="14.00">10c</text>
</g>
<!-- s1&#45;&gt;s2 -->
<g id="edge4" class="edge">
<title>s1&#45;&gt;s2</title>
<path fill="none" stroke="black" d="M51.18,-173.2C59.91,-160.76 72.23,-143.22 82.19,-129.05"/>
<polygon fill="black" stroke="black" points="85.15,-130.92 88.03,-120.73 79.42,-126.9 85.15,-130.92"/>
<text text-anchor="middle" x="79.69" y="-142.8" font-family="Times,serif" font-size="14.00">5c</text>
</g>
<!-- s2&#45;&gt;s3 -->
<g id="edge6" class="edge">
<title>s2&#45;&gt;s3</title>
<path fill="none" stroke="black" d="M83.38,-89.15C77.28,-83.13 70.62,-75.7 65.87,-68 61.68,-61.23 58.27,-53.32 55.6,-45.86"/>
<polygon fill="black" stroke="black" points="58.84,-44.53 52.4,-36.11 52.19,-46.7 58.84,-44.53"/>
<text text-anchor="middle" x="72.69" y="-56.8" font-family="Times,serif" font-size="14.00">5c</text>
</g>
<!-- s2&#45;&gt;s3 -->
<g id="edge7" class="edge">
<title>s2&#45;&gt;s3</title>
<path fill="none" stroke="black" d="M93.74,-85.99C90.29,-76.24 85.29,-63.99 79.08,-54 76.31,-49.55 72.97,-45.11 69.51,-40.97"/>
<polygon fill="black" stroke="black" points="72.1,-38.62 62.86,-33.44 66.86,-43.25 72.1,-38.62"/>
<text text-anchor="middle" x="95.19" y="-56.8" font-family="Times,serif" font-size="14.00">10c</text>
</g>
</g>
</svg>
