<?xml version="1.0" encoding="UTF-8" standalone="no"?>
<!DOCTYPE svg PUBLIC "-//W3C//DTD SVG 1.1//EN"
 "http://www.w3.org/Graphics/SVG/1.1/DTD/svg11.dtd">
<!-- Generated by graphviz version 2.42.3 (20191010.1750)
 -->
<!-- Title: %3 Pages: 1 -->
<svg width="159pt" height="383pt"
 viewBox="0.00 0.00 158.89 383.00" xmlns="http://www.w3.org/2000/svg" xmlns:xlink="http://www.w3.org/1999/xlink">
<g id="graph0" class="graph" transform="scale(1 1) rotate(0) translate(4 379)">
<title>%3</title>
<polygon fill="white" stroke="transparent" points="-4,4 -4,-379 154.89,-379 154.89,4 -4,4"/>
<!-- fake -->
<g id="node1" class="node">
<title>fake</title>
</g>
<!-- s0 -->
<g id="node2" class="node">
<title>s0</title>
<ellipse fill="none" stroke="black" cx="88" cy="-280" rx="18" ry="18"/>
<ellipse fill="none" stroke="black" cx="88" cy="-280" rx="22" ry="22"/>
<text text-anchor="middle" x="88" y="-275.8" font-family="Times,serif" font-size="14.00">s0</text>
</g>
<!-- fake&#45;&gt;s0 -->
<g id="edge1" class="edge">
<title>fake&#45;&gt;s0</title>
<path fill="none" stroke="black" stroke-width="2" d="M88,-338.98C88,-331.15 88,-321.61 88,-312.54"/>
<polygon fill="black" stroke="black" stroke-width="2" points="91.5,-312.24 88,-302.24 84.5,-312.24 91.5,-312.24"/>
</g>
<!-- s2 -->
<g id="node3" class="node">
<title>s2</title>
<ellipse fill="none" stroke="black" cx="27" cy="-104" rx="27" ry="18"/>
<text text-anchor="middle" x="27" y="-99.8" font-family="Times,serif" font-size="14.00">s2</text>
</g>
<!-- s0&#45;&gt;s2 -->
<g id="edge7" class="edge">
<title>s0&#45;&gt;s2</title>
<path fill="none" stroke="black" d="M72.12,-264.71C58.65,-251.49 40.22,-230.53 31.79,-208 22.61,-183.47 22.36,-153.35 23.83,-132.03"/>
<polygon fill="black" stroke="black" points="27.32,-132.31 24.68,-122.04 20.34,-131.71 27.32,-132.31"/>
<text text-anchor="middle" x="42.11" y="-185.8" font-family="Times,serif" font-size="14.00">10c</text>
</g>
<!-- s1 -->
<g id="node4" class="node">
<title>s1</title>
<ellipse fill="none" stroke="black" cx="88" cy="-190" rx="27" ry="18"/>
<text text-anchor="middle" x="88" y="-185.8" font-family="Times,serif" font-size="14.00">s1</text>
</g>
<!-- s0&#45;&gt;s1 -->
<g id="edge3" class="edge">
<title>s0&#45;&gt;s1</title>
<path fill="none" stroke="black" d="M88,-257.7C88,-245.86 88,-230.99 88,-218.3"/>
<polygon fill="black" stroke="black" points="91.5,-218.27 88,-208.27 84.5,-218.27 91.5,-218.27"/>
<text text-anchor="middle" x="94.61" y="-228.8" font-family="Times,serif" font-size="14.00">5c</text>
</g>
<!-- s3 -->
<g id="node5" class="node">
<title>s3</title>
<ellipse fill="none" stroke="black" cx="77" cy="-18" rx="27" ry="18"/>
<text text-anchor="middle" x="77" y="-13.8" font-family="Times,serif" font-size="14.00">s3</text>
</g>
<!-- s2&#45;&gt;s3 -->
<g id="edge4" class="edge">
<title>s2&#45;&gt;s3</title>
<path fill="none" stroke="black" d="M20.03,-86.16C17.06,-76.23 15.37,-63.75 20.79,-54 26.12,-44.4 35.29,-37.1 44.7,-31.71"/>
<polygon fill="black" stroke="black" points="46.37,-34.78 53.68,-27.11 43.18,-28.55 46.37,-34.78"/>
<text text-anchor="middle" x="31.11" y="-56.8" font-family="Times,serif" font-size="14.00">10c</text>
</g>
<!-- s2&#45;&gt;s3 -->
<g id="edge6" class="edge">
<title>s2&#45;&gt;s3</title>
<path fill="none" stroke="black" d="M36.64,-86.8C43.9,-74.6 53.99,-57.66 62.26,-43.76"/>
<polygon fill="black" stroke="black" points="65.28,-45.53 67.39,-35.15 59.27,-41.95 65.28,-45.53"/>
<text text-anchor="middle" x="61.61" y="-56.8" font-family="Times,serif" font-size="14.00">5c</text>
</g>
<!-- s1&#45;&gt;s2 -->
<g id="edge2" class="edge">
<title>s1&#45;&gt;s2</title>
<path fill="none" stroke="black" d="M76.81,-173.59C67.75,-161.12 54.84,-143.33 44.43,-129"/>
<polygon fill="black" stroke="black" points="47.03,-126.63 38.32,-120.59 41.37,-130.74 47.03,-126.63"/>
<text text-anchor="middle" x="68.61" y="-142.8" font-family="Times,serif" font-size="14.00">5c</text>
</g>
<!-- s1&#45;&gt;s3 -->
<g id="edge8" class="edge">
<title>s1&#45;&gt;s3</title>
<path fill="none" stroke="black" d="M86.88,-171.76C84.97,-142.16 81.04,-81.43 78.75,-46.11"/>
<polygon fill="black" stroke="black" points="82.24,-45.78 78.1,-36.03 75.25,-46.23 82.24,-45.78"/>
<text text-anchor="middle" x="93.11" y="-99.8" font-family="Times,serif" font-size="14.00">10c</text>
</g>
<!-- s3&#45;&gt;s0 -->
<g id="edge5" class="edge">
<title>s3&#45;&gt;s0</title>
<path fill="none" stroke="black" d="M86.34,-35.16C104.03,-67.78 139.33,-143.87 124,-208 120.28,-223.58 112.55,-239.6 105.2,-252.47"/>
<polygon fill="black" stroke="black" points="102.09,-250.85 99.99,-261.24 108.11,-254.43 102.09,-250.85"/>
<text text-anchor="middle" x="138.44" y="-142.8" font-family="Times,serif" font-size="14.00">gum</text>
</g>
</g>
</svg>
