<?xml version="1.0" encoding="UTF-8" standalone="no"?>
<!DOCTYPE svg PUBLIC "-//W3C//DTD SVG 1.1//EN"
 "http://www.w3.org/Graphics/SVG/1.1/DTD/svg11.dtd">
<!-- Generated by graphviz version 2.42.3 (20191010.1750)
 -->
<!-- Title: %3 Pages: 1 -->
<svg width="67pt" height="213pt"
 viewBox="0.00 0.00 67.49 212.90" xmlns="http://www.w3.org/2000/svg" xmlns:xlink="http://www.w3.org/1999/xlink">
<g id="graph0" class="graph" transform="scale(1 1) rotate(0) translate(4 208.9)">
<title>%3</title>
<polygon fill="white" stroke="transparent" points="-4,4 -4,-208.9 63.49,-208.9 63.49,4 -4,4"/>
<!-- fake0 -->
<g id="node1" class="node">
<title>fake0</title>
</g>
<!-- q0 -->
<g id="node2" class="node">
<title>q0</title>
<ellipse fill="none" stroke="black" cx="29.75" cy="-113.9" rx="27" ry="18"/>
<text text-anchor="middle" x="29.75" y="-109.7" font-family="Times,serif" font-size="14.00">q0</text>
</g>
<!-- fake0&#45;&gt;q0 -->
<g id="edge1" class="edge">
<title>fake0&#45;&gt;q0</title>
<path fill="none" stroke="black" stroke-width="2" d="M29.75,-168.71C29.75,-160.69 29.75,-150.95 29.75,-141.97"/>
<polygon fill="black" stroke="black" stroke-width="2" points="33.25,-141.93 29.75,-131.93 26.25,-141.93 33.25,-141.93"/>
</g>
<!-- q1 -->
<g id="node3" class="node">
<title>q1</title>
<ellipse fill="none" stroke="black" cx="29.75" cy="-22.95" rx="18.91" ry="18.91"/>
<ellipse fill="none" stroke="black" cx="29.75" cy="-22.95" rx="22.9" ry="22.9"/>
<text text-anchor="middle" x="29.75" y="-18.75" font-family="Times,serif" font-size="14.00">q1</text>
</g>
<!-- q0&#45;&gt;q1 -->
<g id="edge2" class="edge">
<title>q0&#45;&gt;q1</title>
<path fill="none" stroke="black" d="M29.75,-95.75C29.75,-84.6 29.75,-69.7 29.75,-56.37"/>
<polygon fill="black" stroke="black" points="33.25,-56.11 29.75,-46.11 26.25,-56.11 33.25,-56.11"/>
<text text-anchor="middle" x="33.25" y="-66.7" font-family="Times,serif" font-size="14.00">1</text>
</g>
</g>
</svg>
