<?xml version="1.0" encoding="UTF-8" standalone="no"?>
<!DOCTYPE svg PUBLIC "-//W3C//DTD SVG 1.1//EN"
 "http://www.w3.org/Graphics/SVG/1.1/DTD/svg11.dtd">
<!-- Generated by graphviz version 2.42.3 (20191010.1750)
 -->
<!-- Title: %3 Pages: 1 -->
<svg width="112pt" height="385pt"
 viewBox="0.00 0.00 112.00 384.90" xmlns="http://www.w3.org/2000/svg" xmlns:xlink="http://www.w3.org/1999/xlink">
<g id="graph0" class="graph" transform="scale(1 1) rotate(0) translate(4 380.9)">
<title>%3</title>
<polygon fill="white" stroke="transparent" points="-4,4 -4,-380.9 108,-380.9 108,4 -4,4"/>
<!-- fake -->
<g id="node1" class="node">
<title>fake</title>
</g>
<!-- q0 -->
<g id="node2" class="node">
<title>q0</title>
<ellipse fill="none" stroke="black" cx="27" cy="-285.9" rx="27" ry="18"/>
<text text-anchor="middle" x="27" y="-281.7" font-family="Times,serif" font-size="14.00">q0</text>
</g>
<!-- fake&#45;&gt;q0 -->
<g id="edge1" class="edge">
<title>fake&#45;&gt;q0</title>
<path fill="none" stroke="black" stroke-width="2" d="M27,-340.71C27,-332.69 27,-322.95 27,-313.97"/>
<polygon fill="black" stroke="black" stroke-width="2" points="30.5,-313.93 27,-303.93 23.5,-313.93 30.5,-313.93"/>
</g>
<!-- q1 -->
<g id="node4" class="node">
<title>q1</title>
<ellipse fill="none" stroke="black" cx="27" cy="-199.9" rx="27" ry="18"/>
<text text-anchor="middle" x="27" y="-195.7" font-family="Times,serif" font-size="14.00">q1</text>
</g>
<!-- q0&#45;&gt;q1 -->
<g id="edge2" class="edge">
<title>q0&#45;&gt;q1</title>
<path fill="none" stroke="black" d="M20.11,-268.46C18.04,-262.69 16.03,-256.11 15,-249.9 13.77,-242.5 14.7,-234.57 16.49,-227.29"/>
<polygon fill="black" stroke="black" points="19.89,-228.14 19.46,-217.55 13.2,-226.1 19.89,-228.14"/>
<text text-anchor="middle" x="18.5" y="-238.7" font-family="Times,serif" font-size="14.00">0</text>
</g>
<!-- q0&#45;&gt;q1 -->
<g id="edge3" class="edge">
<title>q0&#45;&gt;q1</title>
<path fill="none" stroke="black" d="M27,-267.5C27,-256.16 27,-241.13 27,-228.22"/>
<polygon fill="black" stroke="black" points="30.5,-228 27,-218 23.5,-228 30.5,-228"/>
<text text-anchor="middle" x="30.5" y="-238.7" font-family="Times,serif" font-size="14.00">1</text>
</g>
<!-- q2 -->
<g id="node3" class="node">
<title>q2</title>
<ellipse fill="none" stroke="black" cx="27" cy="-108.95" rx="18.91" ry="18.91"/>
<ellipse fill="none" stroke="black" cx="27" cy="-108.95" rx="22.9" ry="22.9"/>
<text text-anchor="middle" x="27" y="-104.75" font-family="Times,serif" font-size="14.00">q2</text>
</g>
<!-- q3 -->
<g id="node5" class="node">
<title>q3</title>
<ellipse fill="none" stroke="black" cx="27" cy="-18" rx="27" ry="18"/>
<text text-anchor="middle" x="27" y="-13.8" font-family="Times,serif" font-size="14.00">q3</text>
</g>
<!-- q2&#45;&gt;q3 -->
<g id="edge6" class="edge">
<title>q2&#45;&gt;q3</title>
<path fill="none" stroke="black" d="M18.68,-87.56C15.54,-77.5 13.14,-65.17 15,-54 15.49,-51.09 16.18,-48.1 17,-45.14"/>
<polygon fill="black" stroke="black" points="20.39,-46.03 20.11,-35.44 13.72,-43.9 20.39,-46.03"/>
<text text-anchor="middle" x="18.5" y="-56.8" font-family="Times,serif" font-size="14.00">0</text>
</g>
<!-- q2&#45;&gt;q3 -->
<g id="edge7" class="edge">
<title>q2&#45;&gt;q3</title>
<path fill="none" stroke="black" d="M27,-85.96C27,-73.99 27,-59.05 27,-46.33"/>
<polygon fill="black" stroke="black" points="30.5,-46.28 27,-36.28 23.5,-46.28 30.5,-46.28"/>
<text text-anchor="middle" x="30.5" y="-56.8" font-family="Times,serif" font-size="14.00">1</text>
</g>
<!-- q1&#45;&gt;q2 -->
<g id="edge4" class="edge">
<title>q1&#45;&gt;q2</title>
<path fill="none" stroke="black" d="M20.11,-182.46C18.04,-176.69 16.03,-170.11 15,-163.9 13.71,-156.14 14.47,-147.81 16.11,-140.07"/>
<polygon fill="black" stroke="black" points="19.51,-140.91 18.68,-130.34 12.75,-139.12 19.51,-140.91"/>
<text text-anchor="middle" x="18.5" y="-152.7" font-family="Times,serif" font-size="14.00">0</text>
</g>
<!-- q1&#45;&gt;q2 -->
<g id="edge5" class="edge">
<title>q1&#45;&gt;q2</title>
<path fill="none" stroke="black" d="M27,-181.75C27,-170.6 27,-155.7 27,-142.37"/>
<polygon fill="black" stroke="black" points="30.5,-142.11 27,-132.11 23.5,-142.11 30.5,-142.11"/>
<text text-anchor="middle" x="30.5" y="-152.7" font-family="Times,serif" font-size="14.00">1</text>
</g>
<!-- q3&#45;&gt;q3 -->
<g id="edge8" class="edge">
<title>q3&#45;&gt;q3</title>
<path fill="none" stroke="black" d="M53.79,-21.93C63.78,-22.06 72,-20.75 72,-18 72,-16.28 68.79,-15.13 63.94,-14.53"/>
<polygon fill="black" stroke="black" points="63.94,-11.03 53.79,-14.07 63.63,-18.02 63.94,-11.03"/>
<text text-anchor="middle" x="75.5" y="-13.8" font-family="Times,serif" font-size="14.00">0</text>
</g>
<!-- q3&#45;&gt;q3 -->
<g id="edge9" class="edge">
<title>q3&#45;&gt;q3</title>
<path fill="none" stroke="black" d="M52.23,-24.94C71.04,-27.37 90,-25.05 90,-18 90,-12.21 77.24,-9.62 62.27,-10.21"/>
<polygon fill="black" stroke="black" points="61.9,-6.73 52.23,-11.06 62.49,-13.7 61.9,-6.73"/>
<text text-anchor="middle" x="93.5" y="-13.8" font-family="Times,serif" font-size="14.00">1</text>
</g>
</g>
</svg>
