<?xml version="1.0" encoding="UTF-8" standalone="no"?>
<!DOCTYPE svg PUBLIC "-//W3C//DTD SVG 1.1//EN"
 "http://www.w3.org/Graphics/SVG/1.1/DTD/svg11.dtd">
<!-- Generated by graphviz version 2.42.3 (20191010.1750)
 -->
<!-- Title: %3 Pages: 1 -->
<svg width="312pt" height="557pt"
 viewBox="0.00 0.00 312.00 556.90" xmlns="http://www.w3.org/2000/svg" xmlns:xlink="http://www.w3.org/1999/xlink">
<g id="graph0" class="graph" transform="scale(1 1) rotate(0) translate(4 552.9)">
<title>%3</title>
<polygon fill="white" stroke="transparent" points="-4,4 -4,-552.9 308,-552.9 308,4 -4,4"/>
<!-- fake -->
<g id="node1" class="node">
<title>fake</title>
</g>
<!-- q0 -->
<g id="node9" class="node">
<title>q0</title>
<ellipse fill="none" stroke="black" cx="187" cy="-457.9" rx="27" ry="18"/>
<text text-anchor="middle" x="187" y="-453.7" font-family="Times,serif" font-size="14.00">q0</text>
</g>
<!-- fake&#45;&gt;q0 -->
<g id="edge1" class="edge">
<title>fake&#45;&gt;q0</title>
<path fill="none" stroke="black" stroke-width="2" d="M187,-512.71C187,-504.69 187,-494.95 187,-485.97"/>
<polygon fill="black" stroke="black" stroke-width="2" points="190.5,-485.93 187,-475.93 183.5,-485.93 190.5,-485.93"/>
</g>
<!-- q7 -->
<g id="node2" class="node">
<title>q7</title>
<ellipse fill="none" stroke="black" cx="88" cy="-113.9" rx="27" ry="18"/>
<text text-anchor="middle" x="88" y="-109.7" font-family="Times,serif" font-size="14.00">q7</text>
</g>
<!-- q6 -->
<g id="node3" class="node">
<title>q6</title>
<ellipse fill="none" stroke="black" cx="101" cy="-285.9" rx="27" ry="18"/>
<text text-anchor="middle" x="101" y="-281.7" font-family="Times,serif" font-size="14.00">q6</text>
</g>
<!-- q7&#45;&gt;q6 -->
<g id="edge16" class="edge">
<title>q7&#45;&gt;q6</title>
<path fill="none" stroke="black" d="M76.14,-130.19C62.07,-150.25 41.77,-186.57 52,-217.9 57.45,-234.6 68.82,-250.58 79.23,-262.75"/>
<polygon fill="black" stroke="black" points="76.92,-265.41 86.21,-270.52 82.14,-260.74 76.92,-265.41"/>
<text text-anchor="middle" x="55.5" y="-195.7" font-family="Times,serif" font-size="14.00">0</text>
</g>
<!-- q2 -->
<g id="node4" class="node">
<title>q2</title>
<ellipse fill="none" stroke="black" cx="160" cy="-22.95" rx="18.91" ry="18.91"/>
<ellipse fill="none" stroke="black" cx="160" cy="-22.95" rx="22.9" ry="22.9"/>
<text text-anchor="middle" x="160" y="-18.75" font-family="Times,serif" font-size="14.00">q2</text>
</g>
<!-- q7&#45;&gt;q2 -->
<g id="edge17" class="edge">
<title>q7&#45;&gt;q2</title>
<path fill="none" stroke="black" d="M100.21,-97.81C111.01,-84.47 126.97,-64.75 139.69,-49.04"/>
<polygon fill="black" stroke="black" points="142.43,-51.22 146,-41.25 136.99,-46.82 142.43,-51.22"/>
<text text-anchor="middle" x="130.5" y="-66.7" font-family="Times,serif" font-size="14.00">1</text>
</g>
<!-- q6&#45;&gt;q6 -->
<g id="edge14" class="edge">
<title>q6&#45;&gt;q6</title>
<path fill="none" stroke="black" d="M125.53,-293.65C136.51,-294.39 146,-291.81 146,-285.9 146,-281.93 141.72,-279.46 135.57,-278.49"/>
<polygon fill="black" stroke="black" points="135.65,-275 125.53,-278.15 135.41,-281.99 135.65,-275"/>
<text text-anchor="middle" x="149.5" y="-281.7" font-family="Times,serif" font-size="14.00">0</text>
</g>
<!-- q4 -->
<g id="node8" class="node">
<title>q4</title>
<ellipse fill="none" stroke="black" cx="95" cy="-199.9" rx="27" ry="18"/>
<text text-anchor="middle" x="95" y="-195.7" font-family="Times,serif" font-size="14.00">q4</text>
</g>
<!-- q6&#45;&gt;q4 -->
<g id="edge15" class="edge">
<title>q6&#45;&gt;q4</title>
<path fill="none" stroke="black" d="M99.79,-267.9C98.98,-256.59 97.9,-241.48 96.97,-228.47"/>
<polygon fill="black" stroke="black" points="100.44,-227.89 96.23,-218.16 93.45,-228.39 100.44,-227.89"/>
<text text-anchor="middle" x="102.5" y="-238.7" font-family="Times,serif" font-size="14.00">1</text>
</g>
<!-- q2&#45;&gt;q2 -->
<g id="edge7" class="edge">
<title>q2&#45;&gt;q2</title>
<path fill="none" stroke="black" d="M181.49,-31.36C191.83,-32.4 200.95,-29.6 200.95,-22.95 200.95,-18.69 197.21,-16.01 191.8,-14.91"/>
<polygon fill="black" stroke="black" points="191.61,-11.4 181.49,-14.54 191.36,-18.39 191.61,-11.4"/>
<text text-anchor="middle" x="204.45" y="-18.75" font-family="Times,serif" font-size="14.00">1</text>
</g>
<!-- q2&#45;&gt;q0 -->
<g id="edge6" class="edge">
<title>q2&#45;&gt;q0</title>
<path fill="none" stroke="black" d="M182.62,-27.89C221.53,-36.12 297,-59.02 297,-112.9 297,-372.9 297,-372.9 297,-372.9 297,-411.66 253.32,-434.93 221.01,-446.83"/>
<polygon fill="black" stroke="black" points="219.71,-443.58 211.41,-450.17 222.01,-450.19 219.71,-443.58"/>
<text text-anchor="middle" x="300.5" y="-238.7" font-family="Times,serif" font-size="14.00">0</text>
</g>
<!-- q1 -->
<g id="node5" class="node">
<title>q1</title>
<ellipse fill="none" stroke="black" cx="101" cy="-371.9" rx="27" ry="18"/>
<text text-anchor="middle" x="101" y="-367.7" font-family="Times,serif" font-size="14.00">q1</text>
</g>
<!-- q1&#45;&gt;q6 -->
<g id="edge4" class="edge">
<title>q1&#45;&gt;q6</title>
<path fill="none" stroke="black" d="M101,-353.5C101,-342.16 101,-327.13 101,-314.22"/>
<polygon fill="black" stroke="black" points="104.5,-314 101,-304 97.5,-314 104.5,-314"/>
<text text-anchor="middle" x="104.5" y="-324.7" font-family="Times,serif" font-size="14.00">0</text>
</g>
<!-- q1&#45;&gt;q2 -->
<g id="edge5" class="edge">
<title>q1&#45;&gt;q2</title>
<path fill="none" stroke="black" d="M77.32,-363.08C47.47,-351.55 0,-326.93 0,-286.9 0,-286.9 0,-286.9 0,-112.9 0,-55.28 80.24,-34.66 127.07,-27.53"/>
<polygon fill="black" stroke="black" points="127.66,-30.99 137.08,-26.14 126.69,-24.05 127.66,-30.99"/>
<text text-anchor="middle" x="3.5" y="-195.7" font-family="Times,serif" font-size="14.00">1</text>
</g>
<!-- q3 -->
<g id="node6" class="node">
<title>q3</title>
<ellipse fill="none" stroke="black" cx="242" cy="-371.9" rx="27" ry="18"/>
<text text-anchor="middle" x="242" y="-367.7" font-family="Times,serif" font-size="14.00">q3</text>
</g>
<!-- q3&#45;&gt;q6 -->
<g id="edge9" class="edge">
<title>q3&#45;&gt;q6</title>
<path fill="none" stroke="black" d="M222.39,-359.22C198.19,-344.8 156.85,-320.18 129.24,-303.72"/>
<polygon fill="black" stroke="black" points="130.82,-300.59 120.44,-298.48 127.24,-306.61 130.82,-300.59"/>
<text text-anchor="middle" x="182.5" y="-324.7" font-family="Times,serif" font-size="14.00">1</text>
</g>
<!-- q3&#45;&gt;q2 -->
<g id="edge8" class="edge">
<title>q3&#45;&gt;q2</title>
<path fill="none" stroke="black" d="M242,-353.85C242,-336.88 242,-310.09 242,-286.9 242,-286.9 242,-286.9 242,-112.9 242,-80.68 212.56,-55.14 188.96,-39.83"/>
<polygon fill="black" stroke="black" points="190.62,-36.75 180.27,-34.48 186.94,-42.71 190.62,-36.75"/>
<text text-anchor="middle" x="245.5" y="-195.7" font-family="Times,serif" font-size="14.00">0</text>
</g>
<!-- q5 -->
<g id="node7" class="node">
<title>q5</title>
<ellipse fill="none" stroke="black" cx="160" cy="-113.9" rx="27" ry="18"/>
<text text-anchor="middle" x="160" y="-109.7" font-family="Times,serif" font-size="14.00">q5</text>
</g>
<!-- q5&#45;&gt;q6 -->
<g id="edge13" class="edge">
<title>q5&#45;&gt;q6</title>
<path fill="none" stroke="black" d="M156.02,-131.91C151.02,-152.53 141.76,-188.21 131,-217.9 125.93,-231.89 119.24,-247.06 113.47,-259.42"/>
<polygon fill="black" stroke="black" points="110.21,-258.12 109.08,-268.66 116.53,-261.13 110.21,-258.12"/>
<text text-anchor="middle" x="146.5" y="-195.7" font-family="Times,serif" font-size="14.00">1</text>
</g>
<!-- q5&#45;&gt;q2 -->
<g id="edge12" class="edge">
<title>q5&#45;&gt;q2</title>
<path fill="none" stroke="black" d="M160,-95.75C160,-84.6 160,-69.7 160,-56.37"/>
<polygon fill="black" stroke="black" points="163.5,-56.11 160,-46.11 156.5,-56.11 163.5,-56.11"/>
<text text-anchor="middle" x="163.5" y="-66.7" font-family="Times,serif" font-size="14.00">0</text>
</g>
<!-- q4&#45;&gt;q7 -->
<g id="edge10" class="edge">
<title>q4&#45;&gt;q7</title>
<path fill="none" stroke="black" d="M93.58,-181.9C92.64,-170.59 91.38,-155.48 90.3,-142.47"/>
<polygon fill="black" stroke="black" points="93.76,-141.84 89.44,-132.16 86.78,-142.42 93.76,-141.84"/>
<text text-anchor="middle" x="95.5" y="-152.7" font-family="Times,serif" font-size="14.00">0</text>
</g>
<!-- q4&#45;&gt;q5 -->
<g id="edge11" class="edge">
<title>q4&#45;&gt;q5</title>
<path fill="none" stroke="black" d="M106.92,-183.49C116.73,-170.82 130.77,-152.67 141.96,-138.22"/>
<polygon fill="black" stroke="black" points="144.8,-140.26 148.15,-130.21 139.27,-135.98 144.8,-140.26"/>
<text text-anchor="middle" x="135.5" y="-152.7" font-family="Times,serif" font-size="14.00">1</text>
</g>
<!-- q0&#45;&gt;q1 -->
<g id="edge2" class="edge">
<title>q0&#45;&gt;q1</title>
<path fill="none" stroke="black" d="M172.41,-442.65C158.82,-429.38 138.38,-409.41 122.84,-394.23"/>
<polygon fill="black" stroke="black" points="125.26,-391.7 115.66,-387.22 120.37,-396.71 125.26,-391.7"/>
<text text-anchor="middle" x="153.5" y="-410.7" font-family="Times,serif" font-size="14.00">0</text>
</g>
<!-- q0&#45;&gt;q5 -->
<g id="edge3" class="edge">
<title>q0&#45;&gt;q5</title>
<path fill="none" stroke="black" d="M185.96,-439.91C183.07,-393.43 174.44,-260.31 164,-149.9 163.76,-147.34 163.49,-144.68 163.21,-142.02"/>
<polygon fill="black" stroke="black" points="166.67,-141.53 162.09,-131.98 159.71,-142.3 166.67,-141.53"/>
<text text-anchor="middle" x="179.5" y="-281.7" font-family="Times,serif" font-size="14.00">1</text>
</g>
</g>
</svg>
