<?xml version="1.0" encoding="UTF-8" standalone="no"?>
<!DOCTYPE svg PUBLIC "-//W3C//DTD SVG 1.1//EN"
 "http://www.w3.org/Graphics/SVG/1.1/DTD/svg11.dtd">
<!-- Generated by graphviz version 2.42.3 (20191010.1750)
 -->
<!-- Title: %3 Pages: 1 -->
<svg width="147pt" height="299pt"
 viewBox="0.00 0.00 147.00 298.90" xmlns="http://www.w3.org/2000/svg" xmlns:xlink="http://www.w3.org/1999/xlink">
<g id="graph0" class="graph" transform="scale(1 1) rotate(0) translate(4 294.9)">
<title>%3</title>
<polygon fill="white" stroke="transparent" points="-4,4 -4,-294.9 143,-294.9 143,4 -4,4"/>
<!-- fake0 -->
<g id="node1" class="node">
<title>fake0</title>
</g>
<!-- q0 -->
<g id="node2" class="node">
<title>q0</title>
<ellipse fill="none" stroke="black" cx="62" cy="-199.9" rx="27" ry="18"/>
<text text-anchor="middle" x="62" y="-195.7" font-family="Times,serif" font-size="14.00">q0</text>
</g>
<!-- fake0&#45;&gt;q0 -->
<g id="edge1" class="edge">
<title>fake0&#45;&gt;q0</title>
<path fill="none" stroke="black" stroke-width="2" d="M62,-254.71C62,-246.69 62,-236.95 62,-227.97"/>
<polygon fill="black" stroke="black" stroke-width="2" points="65.5,-227.93 62,-217.93 58.5,-227.93 65.5,-227.93"/>
</g>
<!-- q0&#45;&gt;q0 -->
<g id="edge2" class="edge">
<title>q0&#45;&gt;q0</title>
<path fill="none" stroke="black" d="M88.79,-203.27C98.78,-203.38 107,-202.26 107,-199.9 107,-198.43 103.79,-197.44 98.94,-196.93"/>
<polygon fill="black" stroke="black" points="98.92,-193.43 88.79,-196.53 98.65,-200.42 98.92,-193.43"/>
<text text-anchor="middle" x="110.5" y="-195.7" font-family="Times,serif" font-size="14.00">0</text>
</g>
<!-- q0&#45;&gt;q0 -->
<g id="edge4" class="edge">
<title>q0&#45;&gt;q0</title>
<path fill="none" stroke="black" d="M87.56,-205.89C106.26,-207.91 125,-205.91 125,-199.9 125,-194.97 112.39,-192.74 97.53,-193.21"/>
<polygon fill="black" stroke="black" points="97.29,-189.72 87.56,-193.91 97.78,-196.7 97.29,-189.72"/>
<text text-anchor="middle" x="128.5" y="-195.7" font-family="Times,serif" font-size="14.00">1</text>
</g>
<!-- q2 -->
<g id="node3" class="node">
<title>q2</title>
<ellipse fill="none" stroke="black" cx="27" cy="-113.9" rx="27" ry="18"/>
<text text-anchor="middle" x="27" y="-109.7" font-family="Times,serif" font-size="14.00">q2</text>
</g>
<!-- q0&#45;&gt;q2 -->
<g id="edge5" class="edge">
<title>q0&#45;&gt;q2</title>
<path fill="none" stroke="black" d="M55.09,-182.3C50.15,-170.45 43.41,-154.28 37.77,-140.75"/>
<polygon fill="black" stroke="black" points="40.98,-139.35 33.9,-131.46 34.52,-142.04 40.98,-139.35"/>
<text text-anchor="middle" x="50.5" y="-152.7" font-family="Times,serif" font-size="14.00">1</text>
</g>
<!-- q1 -->
<g id="node4" class="node">
<title>q1</title>
<ellipse fill="none" stroke="black" cx="99" cy="-113.9" rx="27" ry="18"/>
<text text-anchor="middle" x="99" y="-109.7" font-family="Times,serif" font-size="14.00">q1</text>
</g>
<!-- q0&#45;&gt;q1 -->
<g id="edge3" class="edge">
<title>q0&#45;&gt;q1</title>
<path fill="none" stroke="black" d="M69.31,-182.3C74.53,-170.45 81.65,-154.28 87.61,-140.75"/>
<polygon fill="black" stroke="black" points="90.88,-142.02 91.71,-131.46 84.47,-139.2 90.88,-142.02"/>
<text text-anchor="middle" x="85.5" y="-152.7" font-family="Times,serif" font-size="14.00">0</text>
</g>
<!-- q3 -->
<g id="node5" class="node">
<title>q3</title>
<ellipse fill="none" stroke="black" cx="69" cy="-22.95" rx="18.91" ry="18.91"/>
<ellipse fill="none" stroke="black" cx="69" cy="-22.95" rx="22.9" ry="22.9"/>
<text text-anchor="middle" x="69" y="-18.75" font-family="Times,serif" font-size="14.00">q3</text>
</g>
<!-- q2&#45;&gt;q3 -->
<g id="edge8" class="edge">
<title>q2&#45;&gt;q3</title>
<path fill="none" stroke="black" d="M34.7,-96.59C40.45,-84.41 48.46,-67.44 55.3,-52.97"/>
<polygon fill="black" stroke="black" points="58.48,-54.44 59.58,-43.9 52.15,-51.45 58.48,-54.44"/>
<text text-anchor="middle" x="53.5" y="-66.7" font-family="Times,serif" font-size="14.00">0</text>
</g>
<!-- q1&#45;&gt;q3 -->
<g id="edge6" class="edge">
<title>q1&#45;&gt;q3</title>
<path fill="none" stroke="black" d="M84.69,-98.45C79.76,-92.56 74.78,-85.38 72,-77.9 69.46,-71.09 68.19,-63.46 67.64,-56.13"/>
<polygon fill="black" stroke="black" points="71.14,-55.96 67.3,-46.08 64.14,-56.2 71.14,-55.96"/>
<text text-anchor="middle" x="75.5" y="-66.7" font-family="Times,serif" font-size="14.00">0</text>
</g>
<!-- q1&#45;&gt;q3 -->
<g id="edge7" class="edge">
<title>q1&#45;&gt;q3</title>
<path fill="none" stroke="black" d="M93.36,-96.17C89.42,-84.51 84.06,-68.61 79.37,-54.69"/>
<polygon fill="black" stroke="black" points="82.61,-53.36 76.1,-45 75.98,-55.6 82.61,-53.36"/>
<text text-anchor="middle" x="89.5" y="-66.7" font-family="Times,serif" font-size="14.00">1</text>
</g>
</g>
</svg>
