<?xml version="1.0" encoding="UTF-8" standalone="no"?>
<!DOCTYPE svg PUBLIC "-//W3C//DTD SVG 1.1//EN"
 "http://www.w3.org/Graphics/SVG/1.1/DTD/svg11.dtd">
<!-- Generated by graphviz version 2.42.3 (20191010.1750)
 -->
<!-- Title: %3 Pages: 1 -->
<svg width="313pt" height="555pt"
 viewBox="0.00 0.00 313.00 555.00" xmlns="http://www.w3.org/2000/svg" xmlns:xlink="http://www.w3.org/1999/xlink">
<g id="graph0" class="graph" transform="scale(1 1) rotate(0) translate(4 551)">
<title>%3</title>
<polygon fill="white" stroke="transparent" points="-4,4 -4,-551 309,-551 309,4 -4,4"/>
<!-- fake -->
<g id="node1" class="node">
<title>fake</title>
</g>
<!-- A -->
<g id="node8" class="node">
<title>A</title>
<ellipse fill="none" stroke="black" cx="188" cy="-456" rx="27" ry="18"/>
<text text-anchor="middle" x="188" y="-451.8" font-family="Times,serif" font-size="14.00">A</text>
</g>
<!-- fake&#45;&gt;A -->
<g id="edge1" class="edge">
<title>fake&#45;&gt;A</title>
<path fill="none" stroke="black" stroke-width="2" d="M188,-510.81C188,-502.79 188,-493.05 188,-484.07"/>
<polygon fill="black" stroke="black" stroke-width="2" points="191.5,-484.03 188,-474.03 184.5,-484.03 191.5,-484.03"/>
</g>
<!-- G -->
<g id="node2" class="node">
<title>G</title>
<ellipse fill="none" stroke="black" cx="101" cy="-284" rx="27" ry="18"/>
<text text-anchor="middle" x="101" y="-279.8" font-family="Times,serif" font-size="14.00">G</text>
</g>
<!-- G&#45;&gt;G -->
<g id="edge14" class="edge">
<title>G&#45;&gt;G</title>
<path fill="none" stroke="black" d="M125.53,-291.75C136.51,-292.49 146,-289.91 146,-284 146,-280.03 141.72,-277.56 135.57,-276.59"/>
<polygon fill="black" stroke="black" points="135.65,-273.09 125.53,-276.25 135.41,-280.09 135.65,-273.09"/>
<text text-anchor="middle" x="149.5" y="-279.8" font-family="Times,serif" font-size="14.00">0</text>
</g>
<!-- E -->
<g id="node3" class="node">
<title>E</title>
<ellipse fill="none" stroke="black" cx="95" cy="-198" rx="27" ry="18"/>
<text text-anchor="middle" x="95" y="-193.8" font-family="Times,serif" font-size="14.00">E</text>
</g>
<!-- G&#45;&gt;E -->
<g id="edge15" class="edge">
<title>G&#45;&gt;E</title>
<path fill="none" stroke="black" d="M99.79,-266C98.98,-254.69 97.9,-239.58 96.97,-226.57"/>
<polygon fill="black" stroke="black" points="100.44,-225.99 96.23,-216.26 93.45,-226.49 100.44,-225.99"/>
<text text-anchor="middle" x="101.5" y="-236.8" font-family="Times,serif" font-size="14.00">1</text>
</g>
<!-- H -->
<g id="node6" class="node">
<title>H</title>
<ellipse fill="none" stroke="black" cx="88" cy="-112" rx="27" ry="18"/>
<text text-anchor="middle" x="88" y="-107.8" font-family="Times,serif" font-size="14.00">H</text>
</g>
<!-- E&#45;&gt;H -->
<g id="edge10" class="edge">
<title>E&#45;&gt;H</title>
<path fill="none" stroke="black" d="M93.58,-180C92.64,-168.69 91.38,-153.58 90.3,-140.57"/>
<polygon fill="black" stroke="black" points="93.76,-139.94 89.44,-130.26 86.78,-140.52 93.76,-139.94"/>
<text text-anchor="middle" x="94.5" y="-150.8" font-family="Times,serif" font-size="14.00">0</text>
</g>
<!-- F -->
<g id="node7" class="node">
<title>F</title>
<ellipse fill="none" stroke="black" cx="160" cy="-112" rx="27" ry="18"/>
<text text-anchor="middle" x="160" y="-107.8" font-family="Times,serif" font-size="14.00">F</text>
</g>
<!-- E&#45;&gt;F -->
<g id="edge11" class="edge">
<title>E&#45;&gt;F</title>
<path fill="none" stroke="black" d="M106.92,-181.59C116.73,-168.92 130.77,-150.77 141.96,-136.32"/>
<polygon fill="black" stroke="black" points="144.8,-138.36 148.15,-128.31 139.27,-134.08 144.8,-138.36"/>
<text text-anchor="middle" x="134.5" y="-150.8" font-family="Times,serif" font-size="14.00">1</text>
</g>
<!-- B -->
<g id="node4" class="node">
<title>B</title>
<ellipse fill="none" stroke="black" cx="101" cy="-370" rx="27" ry="18"/>
<text text-anchor="middle" x="101" y="-365.8" font-family="Times,serif" font-size="14.00">B</text>
</g>
<!-- B&#45;&gt;G -->
<g id="edge4" class="edge">
<title>B&#45;&gt;G</title>
<path fill="none" stroke="black" d="M101,-351.6C101,-340.26 101,-325.23 101,-312.32"/>
<polygon fill="black" stroke="black" points="104.5,-312.1 101,-302.1 97.5,-312.1 104.5,-312.1"/>
<text text-anchor="middle" x="104.5" y="-322.8" font-family="Times,serif" font-size="14.00">0</text>
</g>
<!-- C -->
<g id="node9" class="node">
<title>C</title>
<ellipse fill="none" stroke="black" cx="160" cy="-22" rx="18" ry="18"/>
<ellipse fill="none" stroke="black" cx="160" cy="-22" rx="22" ry="22"/>
<text text-anchor="middle" x="160" y="-17.8" font-family="Times,serif" font-size="14.00">C</text>
</g>
<!-- B&#45;&gt;C -->
<g id="edge5" class="edge">
<title>B&#45;&gt;C</title>
<path fill="none" stroke="black" d="M77.32,-361.18C47.47,-349.65 0,-325.03 0,-285 0,-285 0,-285 0,-111 0,-53.09 81.48,-33.01 128.15,-26.27"/>
<polygon fill="black" stroke="black" points="128.63,-29.74 138.09,-24.96 127.72,-22.8 128.63,-29.74"/>
<text text-anchor="middle" x="3.5" y="-193.8" font-family="Times,serif" font-size="14.00">1</text>
</g>
<!-- D -->
<g id="node5" class="node">
<title>D</title>
<ellipse fill="none" stroke="black" cx="243" cy="-370" rx="27" ry="18"/>
<text text-anchor="middle" x="243" y="-365.8" font-family="Times,serif" font-size="14.00">D</text>
</g>
<!-- D&#45;&gt;G -->
<g id="edge9" class="edge">
<title>D&#45;&gt;G</title>
<path fill="none" stroke="black" d="M223.55,-357.5C199.26,-343.12 157.49,-318.42 129.56,-301.9"/>
<polygon fill="black" stroke="black" points="131.06,-298.71 120.67,-296.63 127.49,-304.74 131.06,-298.71"/>
<text text-anchor="middle" x="183.5" y="-322.8" font-family="Times,serif" font-size="14.00">1</text>
</g>
<!-- D&#45;&gt;C -->
<g id="edge8" class="edge">
<title>D&#45;&gt;C</title>
<path fill="none" stroke="black" d="M243,-351.95C243,-334.98 243,-308.19 243,-285 243,-285 243,-285 243,-111 243,-78.41 212.5,-53 188.48,-38.03"/>
<polygon fill="black" stroke="black" points="190.06,-34.9 179.67,-32.82 186.49,-40.92 190.06,-34.9"/>
<text text-anchor="middle" x="246.5" y="-193.8" font-family="Times,serif" font-size="14.00">0</text>
</g>
<!-- H&#45;&gt;G -->
<g id="edge16" class="edge">
<title>H&#45;&gt;G</title>
<path fill="none" stroke="black" d="M76.14,-128.29C62.07,-148.35 41.77,-184.67 52,-216 57.45,-232.69 68.82,-248.68 79.23,-260.85"/>
<polygon fill="black" stroke="black" points="76.92,-263.51 86.21,-268.62 82.14,-258.84 76.92,-263.51"/>
<text text-anchor="middle" x="55.5" y="-193.8" font-family="Times,serif" font-size="14.00">0</text>
</g>
<!-- H&#45;&gt;C -->
<g id="edge17" class="edge">
<title>H&#45;&gt;C</title>
<path fill="none" stroke="black" d="M100.54,-95.67C111.35,-82.46 127.16,-63.14 139.76,-47.74"/>
<polygon fill="black" stroke="black" points="142.75,-49.61 146.38,-39.65 137.34,-45.17 142.75,-49.61"/>
<text text-anchor="middle" x="129.5" y="-64.8" font-family="Times,serif" font-size="14.00">1</text>
</g>
<!-- F&#45;&gt;G -->
<g id="edge13" class="edge">
<title>F&#45;&gt;G</title>
<path fill="none" stroke="black" d="M156.02,-130.01C151.02,-150.63 141.76,-186.31 131,-216 125.93,-229.99 119.24,-245.16 113.47,-257.52"/>
<polygon fill="black" stroke="black" points="110.21,-256.22 109.08,-266.76 116.53,-259.22 110.21,-256.22"/>
<text text-anchor="middle" x="145.5" y="-193.8" font-family="Times,serif" font-size="14.00">1</text>
</g>
<!-- F&#45;&gt;C -->
<g id="edge12" class="edge">
<title>F&#45;&gt;C</title>
<path fill="none" stroke="black" d="M160,-93.61C160,-82.39 160,-67.46 160,-54.23"/>
<polygon fill="black" stroke="black" points="163.5,-54.07 160,-44.07 156.5,-54.07 163.5,-54.07"/>
<text text-anchor="middle" x="163.5" y="-64.8" font-family="Times,serif" font-size="14.00">0</text>
</g>
<!-- A&#45;&gt;B -->
<g id="edge2" class="edge">
<title>A&#45;&gt;B</title>
<path fill="none" stroke="black" d="M173.24,-440.75C159.49,-427.48 138.81,-407.51 123.1,-392.33"/>
<polygon fill="black" stroke="black" points="125.46,-389.75 115.83,-385.32 120.59,-394.78 125.46,-389.75"/>
<text text-anchor="middle" x="152.5" y="-408.8" font-family="Times,serif" font-size="14.00">0</text>
</g>
<!-- A&#45;&gt;F -->
<g id="edge3" class="edge">
<title>A&#45;&gt;F</title>
<path fill="none" stroke="black" d="M186.62,-437.69C182.87,-390.95 172.22,-258.31 163,-148 162.79,-145.45 162.56,-142.79 162.34,-140.13"/>
<polygon fill="black" stroke="black" points="165.82,-139.75 161.48,-130.09 158.84,-140.35 165.82,-139.75"/>
<text text-anchor="middle" x="178.5" y="-279.8" font-family="Times,serif" font-size="14.00">1</text>
</g>
<!-- C&#45;&gt;A -->
<g id="edge6" class="edge">
<title>C&#45;&gt;A</title>
<path fill="none" stroke="black" d="M181.56,-26.52C220.38,-34.22 298,-56.44 298,-111 298,-371 298,-371 298,-371 298,-409.76 254.32,-433.03 222.01,-444.93"/>
<polygon fill="black" stroke="black" points="220.71,-441.68 212.41,-448.27 223.01,-448.29 220.71,-441.68"/>
<text text-anchor="middle" x="301.5" y="-236.8" font-family="Times,serif" font-size="14.00">0</text>
</g>
<!-- C&#45;&gt;C -->
<g id="edge7" class="edge">
<title>C&#45;&gt;C</title>
<path fill="none" stroke="black" d="M180.58,-30.37C190.84,-31.53 200,-28.74 200,-22 200,-17.68 196.24,-14.99 190.84,-13.91"/>
<polygon fill="black" stroke="black" points="190.67,-10.41 180.58,-13.63 190.48,-17.4 190.67,-10.41"/>
<text text-anchor="middle" x="203.5" y="-17.8" font-family="Times,serif" font-size="14.00">1</text>
</g>
</g>
</svg>
