<?xml version="1.0" encoding="UTF-8" standalone="no"?>
<!DOCTYPE svg PUBLIC "-//W3C//DTD SVG 1.1//EN"
 "http://www.w3.org/Graphics/SVG/1.1/DTD/svg11.dtd">
<!-- Generated by graphviz version 2.42.3 (20191010.1750)
 -->
<!-- Title: %3 Pages: 1 -->
<svg width="127pt" height="481pt"
 viewBox="0.00 0.00 127.28 480.80" xmlns="http://www.w3.org/2000/svg" xmlns:xlink="http://www.w3.org/1999/xlink">
<g id="graph0" class="graph" transform="scale(1 1) rotate(0) translate(4 476.8)">
<title>%3</title>
<polygon fill="white" stroke="transparent" points="-4,4 -4,-476.8 123.28,-476.8 123.28,4 -4,4"/>
<!-- fake -->
<g id="node1" class="node">
<title>fake</title>
</g>
<!-- q0 -->
<g id="node6" class="node">
<title>q0</title>
<ellipse fill="none" stroke="black" cx="57.28" cy="-381.8" rx="27" ry="18"/>
<text text-anchor="middle" x="57.28" y="-377.6" font-family="Times,serif" font-size="14.00">q0</text>
</g>
<!-- fake&#45;&gt;q0 -->
<g id="edge1" class="edge">
<title>fake&#45;&gt;q0</title>
<path fill="none" stroke="black" stroke-width="2" d="M57.28,-436.61C57.28,-428.59 57.28,-418.85 57.28,-409.87"/>
<polygon fill="black" stroke="black" stroke-width="2" points="60.78,-409.83 57.28,-399.83 53.78,-409.83 60.78,-409.83"/>
</g>
<!-- q2 -->
<g id="node2" class="node">
<title>q2</title>
<ellipse fill="none" stroke="black" cx="42.28" cy="-108.95" rx="18.91" ry="18.91"/>
<ellipse fill="none" stroke="black" cx="42.28" cy="-108.95" rx="22.9" ry="22.9"/>
<text text-anchor="middle" x="42.28" y="-104.75" font-family="Times,serif" font-size="14.00">q2</text>
</g>
<!-- q2&#45;&gt;q2 -->
<g id="edge6" class="edge">
<title>q2&#45;&gt;q2</title>
<path fill="none" stroke="black" d="M63.77,-117.36C74.1,-118.4 83.23,-115.6 83.23,-108.95 83.23,-104.69 79.48,-102.01 74.07,-100.91"/>
<polygon fill="black" stroke="black" points="73.89,-97.4 63.77,-100.54 73.64,-104.39 73.89,-97.4"/>
<text text-anchor="middle" x="86.73" y="-104.75" font-family="Times,serif" font-size="14.00">0</text>
</g>
<!-- q5 -->
<g id="node4" class="node">
<title>q5</title>
<ellipse fill="none" stroke="black" cx="42.28" cy="-18" rx="27" ry="18"/>
<text text-anchor="middle" x="42.28" y="-13.8" font-family="Times,serif" font-size="14.00">q5</text>
</g>
<!-- q2&#45;&gt;q5 -->
<g id="edge7" class="edge">
<title>q2&#45;&gt;q5</title>
<path fill="none" stroke="black" d="M42.28,-85.96C42.28,-73.99 42.28,-59.05 42.28,-46.33"/>
<polygon fill="black" stroke="black" points="45.78,-46.28 42.28,-36.28 38.78,-46.28 45.78,-46.28"/>
<text text-anchor="middle" x="45.78" y="-56.8" font-family="Times,serif" font-size="14.00">1</text>
</g>
<!-- q4 -->
<g id="node3" class="node">
<title>q4</title>
<ellipse fill="none" stroke="black" cx="88.28" cy="-204.85" rx="18.91" ry="18.91"/>
<ellipse fill="none" stroke="black" cx="88.28" cy="-204.85" rx="22.9" ry="22.9"/>
<text text-anchor="middle" x="88.28" y="-200.65" font-family="Times,serif" font-size="14.00">q4</text>
</g>
<!-- q4&#45;&gt;q2 -->
<g id="edge10" class="edge">
<title>q4&#45;&gt;q2</title>
<path fill="none" stroke="black" d="M78.52,-183.94C72.12,-170.87 63.64,-153.55 56.49,-138.96"/>
<polygon fill="black" stroke="black" points="59.56,-137.28 52.02,-129.84 53.27,-140.36 59.56,-137.28"/>
<text text-anchor="middle" x="70.78" y="-152.7" font-family="Times,serif" font-size="14.00">0</text>
</g>
<!-- q4&#45;&gt;q5 -->
<g id="edge11" class="edge">
<title>q4&#45;&gt;q5</title>
<path fill="none" stroke="black" d="M95.64,-182.7C102.83,-158.55 111.12,-118.21 99.28,-86 92.64,-67.96 78.75,-51.46 66.34,-39.35"/>
<polygon fill="black" stroke="black" points="68.59,-36.66 58.89,-32.4 63.82,-41.78 68.59,-36.66"/>
<text text-anchor="middle" x="107.78" y="-104.75" font-family="Times,serif" font-size="14.00">1</text>
</g>
<!-- q5&#45;&gt;q5 -->
<g id="edge12" class="edge">
<title>q5&#45;&gt;q5</title>
<path fill="none" stroke="black" d="M69.07,-21.93C79.06,-22.06 87.28,-20.75 87.28,-18 87.28,-16.28 84.07,-15.13 79.22,-14.53"/>
<polygon fill="black" stroke="black" points="79.22,-11.03 69.07,-14.07 78.9,-18.02 79.22,-11.03"/>
<text text-anchor="middle" x="90.78" y="-13.8" font-family="Times,serif" font-size="14.00">0</text>
</g>
<!-- q5&#45;&gt;q5 -->
<g id="edge13" class="edge">
<title>q5&#45;&gt;q5</title>
<path fill="none" stroke="black" d="M67.51,-24.94C86.32,-27.37 105.28,-25.05 105.28,-18 105.28,-12.21 92.52,-9.62 77.55,-10.21"/>
<polygon fill="black" stroke="black" points="77.18,-6.73 67.51,-11.06 77.77,-13.7 77.18,-6.73"/>
<text text-anchor="middle" x="108.78" y="-13.8" font-family="Times,serif" font-size="14.00">1</text>
</g>
<!-- q1 -->
<g id="node5" class="node">
<title>q1</title>
<ellipse fill="none" stroke="black" cx="24.28" cy="-204.85" rx="18.91" ry="18.91"/>
<ellipse fill="none" stroke="black" cx="24.28" cy="-204.85" rx="22.9" ry="22.9"/>
<text text-anchor="middle" x="24.28" y="-200.65" font-family="Times,serif" font-size="14.00">q1</text>
</g>
<!-- q1&#45;&gt;q2 -->
<g id="edge4" class="edge">
<title>q1&#45;&gt;q2</title>
<path fill="none" stroke="black" d="M28.45,-182.07C30.75,-170.1 33.64,-155.03 36.18,-141.77"/>
<polygon fill="black" stroke="black" points="39.68,-142.09 38.13,-131.61 32.81,-140.77 39.68,-142.09"/>
<text text-anchor="middle" x="38.78" y="-152.7" font-family="Times,serif" font-size="14.00">0</text>
</g>
<!-- q1&#45;&gt;q5 -->
<g id="edge5" class="edge">
<title>q1&#45;&gt;q5</title>
<path fill="none" stroke="black" d="M15.31,-183.6C6.07,-159.93 -5.82,-119.71 3.28,-86 7.48,-70.42 16.3,-54.74 24.49,-42.47"/>
<polygon fill="black" stroke="black" points="27.42,-44.39 30.27,-34.18 21.68,-40.38 27.42,-44.39"/>
<text text-anchor="middle" x="6.78" y="-104.75" font-family="Times,serif" font-size="14.00">1</text>
</g>
<!-- q0&#45;&gt;q1 -->
<g id="edge3" class="edge">
<title>q0&#45;&gt;q1</title>
<path fill="none" stroke="black" d="M53.92,-363.74C51.28,-350.2 47.5,-330.8 44.28,-313.8 39.42,-288.21 34.05,-259.19 30.1,-237.68"/>
<polygon fill="black" stroke="black" points="33.53,-236.98 28.28,-227.78 26.65,-238.24 33.53,-236.98"/>
<text text-anchor="middle" x="47.78" y="-291.6" font-family="Times,serif" font-size="14.00">1</text>
</g>
<!-- q3 -->
<g id="node7" class="node">
<title>q3</title>
<ellipse fill="none" stroke="black" cx="87.28" cy="-295.8" rx="27" ry="18"/>
<text text-anchor="middle" x="87.28" y="-291.6" font-family="Times,serif" font-size="14.00">q3</text>
</g>
<!-- q0&#45;&gt;q3 -->
<g id="edge2" class="edge">
<title>q0&#45;&gt;q3</title>
<path fill="none" stroke="black" d="M55.89,-363.5C55.72,-353.88 56.5,-341.85 60.28,-331.8 61.9,-327.48 64.25,-323.26 66.89,-319.33"/>
<polygon fill="black" stroke="black" points="69.75,-321.35 72.99,-311.26 64.17,-317.13 69.75,-321.35"/>
<text text-anchor="middle" x="63.78" y="-334.6" font-family="Times,serif" font-size="14.00">0</text>
</g>
<!-- q3&#45;&gt;q4 -->
<g id="edge9" class="edge">
<title>q3&#45;&gt;q4</title>
<path fill="none" stroke="black" d="M87.47,-277.65C87.6,-266.5 87.76,-251.6 87.91,-238.27"/>
<polygon fill="black" stroke="black" points="91.42,-238.05 88.03,-228.01 84.42,-237.97 91.42,-238.05"/>
<text text-anchor="middle" x="90.78" y="-248.6" font-family="Times,serif" font-size="14.00">1</text>
</g>
<!-- q3&#45;&gt;q0 -->
<g id="edge8" class="edge">
<title>q3&#45;&gt;q0</title>
<path fill="none" stroke="black" d="M81.26,-313.65C77.07,-325.37 71.41,-341.22 66.64,-354.58"/>
<polygon fill="black" stroke="black" points="63.27,-353.61 63.2,-364.21 69.86,-355.97 63.27,-353.61"/>
<text text-anchor="middle" x="76.78" y="-334.6" font-family="Times,serif" font-size="14.00">0</text>
</g>
</g>
</svg>
