<?xml version="1.0" encoding="UTF-8" standalone="no"?>
<!DOCTYPE svg PUBLIC "-//W3C//DTD SVG 1.1//EN"
 "http://www.w3.org/Graphics/SVG/1.1/DTD/svg11.dtd">
<!-- Generated by graphviz version 2.42.3 (20191010.1750)
 -->
<!-- Title: %3 Pages: 1 -->
<svg width="234pt" height="316pt"
 viewBox="0.00 0.00 234.22 316.36" xmlns="http://www.w3.org/2000/svg" xmlns:xlink="http://www.w3.org/1999/xlink">
<g id="graph0" class="graph" transform="scale(1 1) rotate(0) translate(4 312.36)">
<title>%3</title>
<polygon fill="white" stroke="transparent" points="-4,4 -4,-312.36 230.22,-312.36 230.22,4 -4,4"/>
<!-- fake -->
<g id="node1" class="node">
<title>fake</title>
</g>
<!-- {&#39;E&#39;, &#39;A&#39;} -->
<g id="node6" class="node">
<title>{&#39;E&#39;, &#39;A&#39;}</title>
<ellipse fill="none" stroke="black" cx="126.22" cy="-217.36" rx="41.36" ry="18"/>
<text text-anchor="middle" x="126.22" y="-213.16" font-family="Times,serif" font-size="14.00">{&#39;E&#39;, &#39;A&#39;}</text>
</g>
<!-- fake&#45;&gt;{&#39;E&#39;, &#39;A&#39;} -->
<g id="edge1" class="edge">
<title>fake&#45;&gt;{&#39;E&#39;, &#39;A&#39;}</title>
<path fill="none" stroke="black" stroke-width="2" d="M126.22,-272.18C126.22,-264.15 126.22,-254.41 126.22,-245.43"/>
<polygon fill="black" stroke="black" stroke-width="2" points="129.72,-245.39 126.22,-235.39 122.72,-245.39 129.72,-245.39"/>
</g>
<!-- {&#39;C&#39;} -->
<g id="node2" class="node">
<title>{&#39;C&#39;}</title>
<ellipse fill="none" stroke="black" cx="62.22" cy="-31.68" rx="27.84" ry="27.84"/>
<ellipse fill="none" stroke="black" cx="62.22" cy="-31.68" rx="31.86" ry="31.86"/>
<text text-anchor="middle" x="62.22" y="-27.48" font-family="Times,serif" font-size="14.00">{&#39;C&#39;}</text>
</g>
<!-- {&#39;C&#39;}&#45;&gt;{&#39;C&#39;} -->
<g id="edge7" class="edge">
<title>{&#39;C&#39;}&#45;&gt;{&#39;C&#39;}</title>
<path fill="none" stroke="black" d="M92.3,-42.17C103.1,-42.4 111.9,-38.9 111.9,-31.68 111.9,-26.94 108.11,-23.81 102.45,-22.28"/>
<polygon fill="black" stroke="black" points="102.61,-18.78 92.3,-21.19 101.87,-25.74 102.61,-18.78"/>
<text text-anchor="middle" x="115.4" y="-27.48" font-family="Times,serif" font-size="14.00">1</text>
</g>
<!-- {&#39;C&#39;}&#45;&gt;{&#39;E&#39;, &#39;A&#39;} -->
<g id="edge6" class="edge">
<title>{&#39;C&#39;}&#45;&gt;{&#39;E&#39;, &#39;A&#39;}</title>
<path fill="none" stroke="black" d="M39.32,-53.88C16.49,-77.68 -12.66,-117.2 6.22,-149.36 22.47,-177.04 54.76,-194.12 81.76,-204.11"/>
<polygon fill="black" stroke="black" points="80.83,-207.5 91.42,-207.48 83.13,-200.88 80.83,-207.5"/>
<text text-anchor="middle" x="9.72" y="-127.16" font-family="Times,serif" font-size="14.00">0</text>
</g>
<!-- {&#39;G&#39;} -->
<g id="node3" class="node">
<title>{&#39;G&#39;}</title>
<ellipse fill="none" stroke="black" cx="165.22" cy="-31.68" rx="28.34" ry="18"/>
<text text-anchor="middle" x="165.22" y="-27.48" font-family="Times,serif" font-size="14.00">{&#39;G&#39;}</text>
</g>
<!-- {&#39;G&#39;}&#45;&gt;{&#39;G&#39;} -->
<g id="edge10" class="edge">
<title>{&#39;G&#39;}&#45;&gt;{&#39;G&#39;}</title>
<path fill="none" stroke="black" d="M188.98,-41.87C200.82,-43.28 211.39,-39.88 211.39,-31.68 211.39,-26.04 206.4,-22.67 199.42,-21.58"/>
<polygon fill="black" stroke="black" points="199.01,-18.07 188.98,-21.49 198.95,-25.07 199.01,-18.07"/>
<text text-anchor="middle" x="214.89" y="-27.48" font-family="Times,serif" font-size="14.00">0</text>
</g>
<!-- {&#39;G&#39;}&#45;&gt;{&#39;E&#39;, &#39;A&#39;} -->
<g id="edge11" class="edge">
<title>{&#39;G&#39;}&#45;&gt;{&#39;E&#39;, &#39;A&#39;}</title>
<path fill="none" stroke="black" d="M179.59,-47.31C199.72,-69.67 231.97,-113.53 214.22,-149.36 203.48,-171.05 181.98,-187.62 162.92,-198.86"/>
<polygon fill="black" stroke="black" points="161.12,-195.86 154.11,-203.8 164.54,-201.97 161.12,-195.86"/>
<text text-anchor="middle" x="222.72" y="-127.16" font-family="Times,serif" font-size="14.00">1</text>
</g>
<!-- {&#39;F&#39;, &#39;D&#39;} -->
<g id="node4" class="node">
<title>{&#39;F&#39;, &#39;D&#39;}</title>
<ellipse fill="none" stroke="black" cx="164.22" cy="-131.36" rx="40.89" ry="18"/>
<text text-anchor="middle" x="164.22" y="-127.16" font-family="Times,serif" font-size="14.00">{&#39;F&#39;, &#39;D&#39;}</text>
</g>
<!-- {&#39;F&#39;, &#39;D&#39;}&#45;&gt;{&#39;C&#39;} -->
<g id="edge8" class="edge">
<title>{&#39;F&#39;, &#39;D&#39;}&#45;&gt;{&#39;C&#39;}</title>
<path fill="none" stroke="black" d="M147.83,-114.67C132.85,-100.32 110.33,-78.75 92.15,-61.34"/>
<polygon fill="black" stroke="black" points="94.3,-58.55 84.65,-54.16 89.45,-63.61 94.3,-58.55"/>
<text text-anchor="middle" x="128.72" y="-84.16" font-family="Times,serif" font-size="14.00">0</text>
</g>
<!-- {&#39;F&#39;, &#39;D&#39;}&#45;&gt;{&#39;G&#39;} -->
<g id="edge9" class="edge">
<title>{&#39;F&#39;, &#39;D&#39;}&#45;&gt;{&#39;G&#39;}</title>
<path fill="none" stroke="black" d="M164.4,-113.35C164.55,-98.73 164.76,-77.38 164.94,-60.31"/>
<polygon fill="black" stroke="black" points="168.44,-59.86 165.05,-49.83 161.44,-59.79 168.44,-59.86"/>
<text text-anchor="middle" x="167.72" y="-84.16" font-family="Times,serif" font-size="14.00">1</text>
</g>
<!-- {&#39;B&#39;, &#39;H&#39;} -->
<g id="node5" class="node">
<title>{&#39;B&#39;, &#39;H&#39;}</title>
<ellipse fill="none" stroke="black" cx="64.22" cy="-131.36" rx="41.85" ry="18"/>
<text text-anchor="middle" x="64.22" y="-127.16" font-family="Times,serif" font-size="14.00">{&#39;B&#39;, &#39;H&#39;}</text>
</g>
<!-- {&#39;B&#39;, &#39;H&#39;}&#45;&gt;{&#39;C&#39;} -->
<g id="edge5" class="edge">
<title>{&#39;B&#39;, &#39;H&#39;}&#45;&gt;{&#39;C&#39;}</title>
<path fill="none" stroke="black" d="M63.87,-113.35C63.65,-102.46 63.35,-87.83 63.07,-74.02"/>
<polygon fill="black" stroke="black" points="66.56,-73.62 62.86,-63.7 59.56,-73.77 66.56,-73.62"/>
<text text-anchor="middle" x="67.72" y="-84.16" font-family="Times,serif" font-size="14.00">1</text>
</g>
<!-- {&#39;B&#39;, &#39;H&#39;}&#45;&gt;{&#39;G&#39;} -->
<g id="edge4" class="edge">
<title>{&#39;B&#39;, &#39;H&#39;}&#45;&gt;{&#39;G&#39;}</title>
<path fill="none" stroke="black" d="M75.49,-113.98C82.79,-103.98 92.83,-91.26 103.22,-81.36 113.13,-71.92 117.39,-71.74 128.22,-63.36 132.41,-60.13 136.79,-56.61 141.01,-53.16"/>
<polygon fill="black" stroke="black" points="143.37,-55.75 148.84,-46.67 138.91,-50.35 143.37,-55.75"/>
<text text-anchor="middle" x="106.72" y="-84.16" font-family="Times,serif" font-size="14.00">0</text>
</g>
<!-- {&#39;E&#39;, &#39;A&#39;}&#45;&gt;{&#39;F&#39;, &#39;D&#39;} -->
<g id="edge3" class="edge">
<title>{&#39;E&#39;, &#39;A&#39;}&#45;&gt;{&#39;F&#39;, &#39;D&#39;}</title>
<path fill="none" stroke="black" d="M133.91,-199.36C139.22,-187.64 146.37,-171.82 152.4,-158.5"/>
<polygon fill="black" stroke="black" points="155.61,-159.89 156.54,-149.34 149.23,-157 155.61,-159.89"/>
<text text-anchor="middle" x="150.72" y="-170.16" font-family="Times,serif" font-size="14.00">1</text>
</g>
<!-- {&#39;E&#39;, &#39;A&#39;}&#45;&gt;{&#39;B&#39;, &#39;H&#39;} -->
<g id="edge2" class="edge">
<title>{&#39;E&#39;, &#39;A&#39;}&#45;&gt;{&#39;B&#39;, &#39;H&#39;}</title>
<path fill="none" stroke="black" d="M113.97,-199.77C104.91,-187.49 92.43,-170.58 82.24,-156.77"/>
<polygon fill="black" stroke="black" points="84.99,-154.61 76.23,-148.64 79.36,-158.76 84.99,-154.61"/>
<text text-anchor="middle" x="102.72" y="-170.16" font-family="Times,serif" font-size="14.00">0</text>
</g>
</g>
</svg>
