<?xml version="1.0" encoding="UTF-8" standalone="no"?>
<!DOCTYPE svg PUBLIC "-//W3C//DTD SVG 1.1//EN"
 "http://www.w3.org/Graphics/SVG/1.1/DTD/svg11.dtd">
<!-- Generated by graphviz version 2.42.3 (20191010.1750)
 -->
<!-- Title: %3 Pages: 1 -->
<svg width="234pt" height="316pt"
 viewBox="0.00 0.00 234.28 316.36" xmlns="http://www.w3.org/2000/svg" xmlns:xlink="http://www.w3.org/1999/xlink">
<g id="graph0" class="graph" transform="scale(1 1) rotate(0) translate(4 312.36)">
<title>%3</title>
<polygon fill="white" stroke="transparent" points="-4,4 -4,-312.36 230.28,-312.36 230.28,4 -4,4"/>
<!-- fake -->
<g id="node1" class="node">
<title>fake</title>
</g>
<!-- {&#39;E&#39;, &#39;A&#39;} -->
<g id="node5" class="node">
<title>{&#39;E&#39;, &#39;A&#39;}</title>
<ellipse fill="none" stroke="black" cx="126.28" cy="-217.36" rx="41.36" ry="18"/>
<text text-anchor="middle" x="126.28" y="-213.16" font-family="Times,serif" font-size="14.00">{&#39;E&#39;, &#39;A&#39;}</text>
</g>
<!-- fake&#45;&gt;{&#39;E&#39;, &#39;A&#39;} -->
<g id="edge1" class="edge">
<title>fake&#45;&gt;{&#39;E&#39;, &#39;A&#39;}</title>
<path fill="none" stroke="black" stroke-width="2" d="M126.28,-272.18C126.28,-264.15 126.28,-254.41 126.28,-245.43"/>
<polygon fill="black" stroke="black" stroke-width="2" points="129.78,-245.39 126.28,-235.39 122.78,-245.39 129.78,-245.39"/>
</g>
<!-- {&#39;G&#39;} -->
<g id="node2" class="node">
<title>{&#39;G&#39;}</title>
<ellipse fill="none" stroke="black" cx="62.28" cy="-31.68" rx="28.34" ry="18"/>
<text text-anchor="middle" x="62.28" y="-27.48" font-family="Times,serif" font-size="14.00">{&#39;G&#39;}</text>
</g>
<!-- {&#39;G&#39;}&#45;&gt;{&#39;G&#39;} -->
<g id="edge10" class="edge">
<title>{&#39;G&#39;}&#45;&gt;{&#39;G&#39;}</title>
<path fill="none" stroke="black" d="M86.04,-41.87C97.88,-43.28 108.45,-39.88 108.45,-31.68 108.45,-26.04 103.46,-22.67 96.49,-21.58"/>
<polygon fill="black" stroke="black" points="96.07,-18.07 86.04,-21.49 96.01,-25.07 96.07,-18.07"/>
<text text-anchor="middle" x="111.95" y="-27.48" font-family="Times,serif" font-size="14.00">0</text>
</g>
<!-- {&#39;G&#39;}&#45;&gt;{&#39;E&#39;, &#39;A&#39;} -->
<g id="edge11" class="edge">
<title>{&#39;G&#39;}&#45;&gt;{&#39;E&#39;, &#39;A&#39;}</title>
<path fill="none" stroke="black" d="M46.52,-46.72C23.44,-69.03 -14.65,-113.71 6.28,-149.36 22.53,-177.04 54.82,-194.12 81.82,-204.11"/>
<polygon fill="black" stroke="black" points="80.89,-207.5 91.48,-207.48 83.19,-200.88 80.89,-207.5"/>
<text text-anchor="middle" x="9.78" y="-127.16" font-family="Times,serif" font-size="14.00">1</text>
</g>
<!-- {&#39;F&#39;, &#39;D&#39;} -->
<g id="node3" class="node">
<title>{&#39;F&#39;, &#39;D&#39;}</title>
<ellipse fill="none" stroke="black" cx="164.28" cy="-131.36" rx="40.89" ry="18"/>
<text text-anchor="middle" x="164.28" y="-127.16" font-family="Times,serif" font-size="14.00">{&#39;F&#39;, &#39;D&#39;}</text>
</g>
<!-- {&#39;F&#39;, &#39;D&#39;}&#45;&gt;{&#39;G&#39;} -->
<g id="edge9" class="edge">
<title>{&#39;F&#39;, &#39;D&#39;}&#45;&gt;{&#39;G&#39;}</title>
<path fill="none" stroke="black" d="M147.89,-114.67C130.77,-98.27 103.78,-72.43 84.69,-54.15"/>
<polygon fill="black" stroke="black" points="86.94,-51.45 77.3,-47.06 82.1,-56.51 86.94,-51.45"/>
<text text-anchor="middle" x="128.78" y="-84.16" font-family="Times,serif" font-size="14.00">1</text>
</g>
<!-- {&#39;C&#39;} -->
<g id="node4" class="node">
<title>{&#39;C&#39;}</title>
<ellipse fill="none" stroke="black" cx="165.28" cy="-31.68" rx="27.84" ry="27.84"/>
<ellipse fill="none" stroke="black" cx="165.28" cy="-31.68" rx="31.86" ry="31.86"/>
<text text-anchor="middle" x="165.28" y="-27.48" font-family="Times,serif" font-size="14.00">{&#39;C&#39;}</text>
</g>
<!-- {&#39;F&#39;, &#39;D&#39;}&#45;&gt;{&#39;C&#39;} -->
<g id="edge8" class="edge">
<title>{&#39;F&#39;, &#39;D&#39;}&#45;&gt;{&#39;C&#39;}</title>
<path fill="none" stroke="black" d="M164.46,-113.35C164.57,-102.46 164.72,-87.83 164.86,-74.02"/>
<polygon fill="black" stroke="black" points="168.36,-73.73 164.96,-63.7 161.36,-73.66 168.36,-73.73"/>
<text text-anchor="middle" x="167.78" y="-84.16" font-family="Times,serif" font-size="14.00">0</text>
</g>
<!-- {&#39;C&#39;}&#45;&gt;{&#39;C&#39;} -->
<g id="edge7" class="edge">
<title>{&#39;C&#39;}&#45;&gt;{&#39;C&#39;}</title>
<path fill="none" stroke="black" d="M195.36,-42.17C206.16,-42.4 214.96,-38.9 214.96,-31.68 214.96,-26.94 211.17,-23.81 205.51,-22.28"/>
<polygon fill="black" stroke="black" points="205.67,-18.78 195.36,-21.19 204.93,-25.74 205.67,-18.78"/>
<text text-anchor="middle" x="218.46" y="-27.48" font-family="Times,serif" font-size="14.00">1</text>
</g>
<!-- {&#39;C&#39;}&#45;&gt;{&#39;E&#39;, &#39;A&#39;} -->
<g id="edge6" class="edge">
<title>{&#39;C&#39;}&#45;&gt;{&#39;E&#39;, &#39;A&#39;}</title>
<path fill="none" stroke="black" d="M186.64,-55.42C206.26,-79.22 230.08,-117.47 214.28,-149.36 203.54,-171.05 182.04,-187.62 162.99,-198.86"/>
<polygon fill="black" stroke="black" points="161.18,-195.86 154.17,-203.8 164.6,-201.97 161.18,-195.86"/>
<text text-anchor="middle" x="222.78" y="-127.16" font-family="Times,serif" font-size="14.00">0</text>
</g>
<!-- {&#39;E&#39;, &#39;A&#39;}&#45;&gt;{&#39;F&#39;, &#39;D&#39;} -->
<g id="edge3" class="edge">
<title>{&#39;E&#39;, &#39;A&#39;}&#45;&gt;{&#39;F&#39;, &#39;D&#39;}</title>
<path fill="none" stroke="black" d="M133.97,-199.36C139.28,-187.64 146.43,-171.82 152.46,-158.5"/>
<polygon fill="black" stroke="black" points="155.67,-159.89 156.6,-149.34 149.29,-157 155.67,-159.89"/>
<text text-anchor="middle" x="150.78" y="-170.16" font-family="Times,serif" font-size="14.00">1</text>
</g>
<!-- {&#39;B&#39;, &#39;H&#39;} -->
<g id="node6" class="node">
<title>{&#39;B&#39;, &#39;H&#39;}</title>
<ellipse fill="none" stroke="black" cx="64.28" cy="-131.36" rx="41.85" ry="18"/>
<text text-anchor="middle" x="64.28" y="-127.16" font-family="Times,serif" font-size="14.00">{&#39;B&#39;, &#39;H&#39;}</text>
</g>
<!-- {&#39;E&#39;, &#39;A&#39;}&#45;&gt;{&#39;B&#39;, &#39;H&#39;} -->
<g id="edge2" class="edge">
<title>{&#39;E&#39;, &#39;A&#39;}&#45;&gt;{&#39;B&#39;, &#39;H&#39;}</title>
<path fill="none" stroke="black" d="M114.03,-199.77C104.97,-187.49 92.49,-170.58 82.3,-156.77"/>
<polygon fill="black" stroke="black" points="85.05,-154.61 76.29,-148.64 79.42,-158.76 85.05,-154.61"/>
<text text-anchor="middle" x="102.78" y="-170.16" font-family="Times,serif" font-size="14.00">0</text>
</g>
<!-- {&#39;B&#39;, &#39;H&#39;}&#45;&gt;{&#39;G&#39;} -->
<g id="edge4" class="edge">
<title>{&#39;B&#39;, &#39;H&#39;}&#45;&gt;{&#39;G&#39;}</title>
<path fill="none" stroke="black" d="M63.93,-113.35C63.63,-98.73 63.2,-77.38 62.85,-60.31"/>
<polygon fill="black" stroke="black" points="66.34,-59.76 62.63,-49.83 59.34,-59.9 66.34,-59.76"/>
<text text-anchor="middle" x="67.78" y="-84.16" font-family="Times,serif" font-size="14.00">0</text>
</g>
<!-- {&#39;B&#39;, &#39;H&#39;}&#45;&gt;{&#39;C&#39;} -->
<g id="edge5" class="edge">
<title>{&#39;B&#39;, &#39;H&#39;}&#45;&gt;{&#39;C&#39;}</title>
<path fill="none" stroke="black" d="M76.04,-113.68C83.35,-103.8 93.25,-91.32 103.28,-81.36 108.49,-76.19 120.21,-66.81 132.08,-57.65"/>
<polygon fill="black" stroke="black" points="134.43,-60.26 140.24,-51.4 130.18,-54.7 134.43,-60.26"/>
<text text-anchor="middle" x="106.78" y="-84.16" font-family="Times,serif" font-size="14.00">1</text>
</g>
</g>
</svg>
