<?xml version="1.0" encoding="UTF-8" standalone="no"?>
<!DOCTYPE svg PUBLIC "-//W3C//DTD SVG 1.1//EN"
 "http://www.w3.org/Graphics/SVG/1.1/DTD/svg11.dtd">
<!-- Generated by graphviz version 2.42.3 (20191010.1750)
 -->
<!-- Title: %3 Pages: 1 -->
<svg width="168pt" height="388pt"
 viewBox="0.00 0.00 168.06 388.06" xmlns="http://www.w3.org/2000/svg" xmlns:xlink="http://www.w3.org/1999/xlink">
<g id="graph0" class="graph" transform="scale(1 1) rotate(0) translate(4 384.06)">
<title>%3</title>
<polygon fill="white" stroke="transparent" points="-4,4 -4,-384.06 164.06,-384.06 164.06,4 -4,4"/>
<!-- fake -->
<g id="node1" class="node">
<title>fake</title>
</g>
<!-- {&#39;q0&#39;, &#39;q3&#39;} -->
<g id="node4" class="node">
<title>{&#39;q0&#39;, &#39;q3&#39;}</title>
<ellipse fill="none" stroke="black" cx="67.53" cy="-289.06" rx="47.16" ry="18"/>
<text text-anchor="middle" x="67.53" y="-284.86" font-family="Times,serif" font-size="14.00">{&#39;q0&#39;, &#39;q3&#39;}</text>
</g>
<!-- fake&#45;&gt;{&#39;q0&#39;, &#39;q3&#39;} -->
<g id="edge1" class="edge">
<title>fake&#45;&gt;{&#39;q0&#39;, &#39;q3&#39;}</title>
<path fill="none" stroke="black" stroke-width="2" d="M67.53,-343.87C67.53,-335.85 67.53,-326.11 67.53,-317.13"/>
<polygon fill="black" stroke="black" stroke-width="2" points="71.03,-317.09 67.53,-307.09 64.03,-317.09 71.03,-317.09"/>
</g>
<!-- {&#39;q5&#39;} -->
<g id="node2" class="node">
<title>{&#39;q5&#39;}</title>
<ellipse fill="none" stroke="black" cx="67.53" cy="-18" rx="30.75" ry="18"/>
<text text-anchor="middle" x="67.53" y="-13.8" font-family="Times,serif" font-size="14.00">{&#39;q5&#39;}</text>
</g>
<!-- {&#39;q5&#39;}&#45;&gt;{&#39;q5&#39;} -->
<g id="edge6" class="edge">
<title>{&#39;q5&#39;}&#45;&gt;{&#39;q5&#39;}</title>
<path fill="none" stroke="black" d="M97.45,-21.94C107.8,-21.98 116.16,-20.67 116.16,-18 116.16,-16.29 112.73,-15.14 107.54,-14.54"/>
<polygon fill="black" stroke="black" points="107.6,-11.04 97.45,-14.06 107.27,-18.03 107.6,-11.04"/>
<text text-anchor="middle" x="119.66" y="-13.8" font-family="Times,serif" font-size="14.00">0</text>
</g>
<!-- {&#39;q5&#39;}&#45;&gt;{&#39;q5&#39;} -->
<g id="edge7" class="edge">
<title>{&#39;q5&#39;}&#45;&gt;{&#39;q5&#39;}</title>
<path fill="none" stroke="black" d="M95.95,-25.14C115.25,-27.23 134.16,-24.85 134.16,-18 134.16,-12.38 121.44,-9.77 106.21,-10.16"/>
<polygon fill="black" stroke="black" points="105.69,-6.69 95.95,-10.86 106.16,-13.68 105.69,-6.69"/>
<text text-anchor="middle" x="137.66" y="-13.8" font-family="Times,serif" font-size="14.00">1</text>
</g>
<!-- {&#39;q4&#39;, &#39;q2&#39;, &#39;q1&#39;} -->
<g id="node3" class="node">
<title>{&#39;q4&#39;, &#39;q2&#39;, &#39;q1&#39;}</title>
<ellipse fill="none" stroke="black" cx="67.53" cy="-153.53" rx="63.56" ry="63.56"/>
<ellipse fill="none" stroke="black" cx="67.53" cy="-153.53" rx="67.56" ry="67.56"/>
<text text-anchor="middle" x="67.53" y="-149.33" font-family="Times,serif" font-size="14.00">{&#39;q4&#39;, &#39;q2&#39;, &#39;q1&#39;}</text>
</g>
<!-- {&#39;q4&#39;, &#39;q2&#39;, &#39;q1&#39;}&#45;&gt;{&#39;q5&#39;} -->
<g id="edge5" class="edge">
<title>{&#39;q4&#39;, &#39;q2&#39;, &#39;q1&#39;}&#45;&gt;{&#39;q5&#39;}</title>
<path fill="none" stroke="black" d="M67.53,-85.77C67.53,-71.83 67.53,-57.9 67.53,-46.39"/>
<polygon fill="black" stroke="black" points="71.03,-46.18 67.53,-36.18 64.03,-46.18 71.03,-46.18"/>
<text text-anchor="middle" x="71.03" y="-56.8" font-family="Times,serif" font-size="14.00">1</text>
</g>
<!-- {&#39;q4&#39;, &#39;q2&#39;, &#39;q1&#39;}&#45;&gt;{&#39;q4&#39;, &#39;q2&#39;, &#39;q1&#39;} -->
<g id="edge4" class="edge">
<title>{&#39;q4&#39;, &#39;q2&#39;, &#39;q1&#39;}&#45;&gt;{&#39;q4&#39;, &#39;q2&#39;, &#39;q1&#39;}</title>
<path fill="none" stroke="black" d="M133.15,-169.77C144.87,-167.66 153.06,-162.25 153.06,-153.53 153.06,-147.54 149.19,-143.11 142.96,-140.24"/>
<polygon fill="black" stroke="black" points="143.74,-136.82 133.15,-137.29 141.73,-143.52 143.74,-136.82"/>
<text text-anchor="middle" x="156.56" y="-149.33" font-family="Times,serif" font-size="14.00">0</text>
</g>
<!-- {&#39;q0&#39;, &#39;q3&#39;}&#45;&gt;{&#39;q4&#39;, &#39;q2&#39;, &#39;q1&#39;} -->
<g id="edge3" class="edge">
<title>{&#39;q0&#39;, &#39;q3&#39;}&#45;&gt;{&#39;q4&#39;, &#39;q2&#39;, &#39;q1&#39;}</title>
<path fill="none" stroke="black" d="M67.53,-270.88C67.53,-260.46 67.53,-246.36 67.53,-231.56"/>
<polygon fill="black" stroke="black" points="71.03,-231.25 67.53,-221.25 64.03,-231.25 71.03,-231.25"/>
<text text-anchor="middle" x="71.03" y="-241.86" font-family="Times,serif" font-size="14.00">1</text>
</g>
<!-- {&#39;q0&#39;, &#39;q3&#39;}&#45;&gt;{&#39;q0&#39;, &#39;q3&#39;} -->
<g id="edge2" class="edge">
<title>{&#39;q0&#39;, &#39;q3&#39;}&#45;&gt;{&#39;q0&#39;, &#39;q3&#39;}</title>
<path fill="none" stroke="black" d="M111.33,-295.77C123.39,-295.45 132.61,-293.21 132.61,-289.06 132.61,-286.21 128.25,-284.26 121.61,-283.22"/>
<polygon fill="black" stroke="black" points="121.59,-279.7 111.33,-282.35 121,-286.68 121.59,-279.7"/>
<text text-anchor="middle" x="136.11" y="-284.86" font-family="Times,serif" font-size="14.00">0</text>
</g>
</g>
</svg>
