<?xml version="1.0" encoding="UTF-8" standalone="no"?>
<!DOCTYPE svg PUBLIC "-//W3C//DTD SVG 1.1//EN"
 "http://www.w3.org/Graphics/SVG/1.1/DTD/svg11.dtd">
<!-- Generated by graphviz version 2.42.3 (20191010.1750)
 -->
<!-- Title: %3 Pages: 1 -->
<svg width="123pt" height="408pt"
 viewBox="0.00 0.00 123.25 408.25" xmlns="http://www.w3.org/2000/svg" xmlns:xlink="http://www.w3.org/1999/xlink">
<g id="graph0" class="graph" transform="scale(1 1) rotate(0) translate(4 404.25)">
<title>%3</title>
<polygon fill="white" stroke="transparent" points="-4,4 -4,-404.25 119.25,-404.25 119.25,4 -4,4"/>
<!-- fake -->
<g id="node1" class="node">
<title>fake</title>
</g>
<!-- {&#39;q0&#39;} -->
<g id="node2" class="node">
<title>{&#39;q0&#39;}</title>
<ellipse fill="none" stroke="black" cx="34.63" cy="-309.25" rx="30.75" ry="18"/>
<text text-anchor="middle" x="34.63" y="-305.05" font-family="Times,serif" font-size="14.00">{&#39;q0&#39;}</text>
</g>
<!-- fake&#45;&gt;{&#39;q0&#39;} -->
<g id="edge1" class="edge">
<title>fake&#45;&gt;{&#39;q0&#39;}</title>
<path fill="none" stroke="black" stroke-width="2" d="M34.63,-364.07C34.63,-356.04 34.63,-346.3 34.63,-337.32"/>
<polygon fill="black" stroke="black" stroke-width="2" points="38.13,-337.28 34.63,-327.28 31.13,-337.28 38.13,-337.28"/>
</g>
<!-- {&#39;q1&#39;} -->
<g id="node3" class="node">
<title>{&#39;q1&#39;}</title>
<ellipse fill="none" stroke="black" cx="34.63" cy="-223.25" rx="30.75" ry="18"/>
<text text-anchor="middle" x="34.63" y="-219.05" font-family="Times,serif" font-size="14.00">{&#39;q1&#39;}</text>
</g>
<!-- {&#39;q0&#39;}&#45;&gt;{&#39;q1&#39;} -->
<g id="edge2" class="edge">
<title>{&#39;q0&#39;}&#45;&gt;{&#39;q1&#39;}</title>
<path fill="none" stroke="black" d="M27.08,-291.6C23.69,-282.18 20.81,-270.14 22.63,-259.25 23.09,-256.5 23.74,-253.67 24.5,-250.87"/>
<polygon fill="black" stroke="black" points="27.92,-251.64 27.61,-241.05 21.25,-249.52 27.92,-251.64"/>
<text text-anchor="middle" x="26.13" y="-262.05" font-family="Times,serif" font-size="14.00">0</text>
</g>
<!-- {&#39;q0&#39;}&#45;&gt;{&#39;q1&#39;} -->
<g id="edge3" class="edge">
<title>{&#39;q0&#39;}&#45;&gt;{&#39;q1&#39;}</title>
<path fill="none" stroke="black" d="M34.63,-290.85C34.63,-279.51 34.63,-264.48 34.63,-251.57"/>
<polygon fill="black" stroke="black" points="38.13,-251.35 34.63,-241.35 31.13,-251.35 38.13,-251.35"/>
<text text-anchor="middle" x="38.13" y="-262.05" font-family="Times,serif" font-size="14.00">1</text>
</g>
<!-- {&#39;q2&#39;} -->
<g id="node5" class="node">
<title>{&#39;q2&#39;}</title>
<ellipse fill="none" stroke="black" cx="34.63" cy="-120.63" rx="30.74" ry="30.74"/>
<ellipse fill="none" stroke="black" cx="34.63" cy="-120.63" rx="34.75" ry="34.75"/>
<text text-anchor="middle" x="34.63" y="-116.43" font-family="Times,serif" font-size="14.00">{&#39;q2&#39;}</text>
</g>
<!-- {&#39;q1&#39;}&#45;&gt;{&#39;q2&#39;} -->
<g id="edge4" class="edge">
<title>{&#39;q1&#39;}&#45;&gt;{&#39;q2&#39;}</title>
<path fill="none" stroke="black" d="M27.61,-205.46C25.58,-199.78 23.64,-193.34 22.63,-187.25 21.37,-179.71 21.56,-171.68 22.53,-163.94"/>
<polygon fill="black" stroke="black" points="26,-164.41 24.21,-153.97 19.1,-163.25 26,-164.41"/>
<text text-anchor="middle" x="26.13" y="-176.05" font-family="Times,serif" font-size="14.00">0</text>
</g>
<!-- {&#39;q1&#39;}&#45;&gt;{&#39;q2&#39;} -->
<g id="edge5" class="edge">
<title>{&#39;q1&#39;}&#45;&gt;{&#39;q2&#39;}</title>
<path fill="none" stroke="black" d="M34.63,-205.18C34.63,-194.26 34.63,-179.56 34.63,-165.54"/>
<polygon fill="black" stroke="black" points="38.13,-165.51 34.63,-155.51 31.13,-165.51 38.13,-165.51"/>
<text text-anchor="middle" x="38.13" y="-176.05" font-family="Times,serif" font-size="14.00">1</text>
</g>
<!-- {&#39;q3&#39;} -->
<g id="node4" class="node">
<title>{&#39;q3&#39;}</title>
<ellipse fill="none" stroke="black" cx="34.63" cy="-18" rx="30.75" ry="18"/>
<text text-anchor="middle" x="34.63" y="-13.8" font-family="Times,serif" font-size="14.00">{&#39;q3&#39;}</text>
</g>
<!-- {&#39;q3&#39;}&#45;&gt;{&#39;q3&#39;} -->
<g id="edge8" class="edge">
<title>{&#39;q3&#39;}&#45;&gt;{&#39;q3&#39;}</title>
<path fill="none" stroke="black" d="M64.54,-21.94C74.89,-21.98 83.25,-20.67 83.25,-18 83.25,-16.29 79.82,-15.14 74.63,-14.54"/>
<polygon fill="black" stroke="black" points="74.7,-11.04 64.54,-14.06 74.36,-18.03 74.7,-11.04"/>
<text text-anchor="middle" x="86.75" y="-13.8" font-family="Times,serif" font-size="14.00">0</text>
</g>
<!-- {&#39;q3&#39;}&#45;&gt;{&#39;q3&#39;} -->
<g id="edge9" class="edge">
<title>{&#39;q3&#39;}&#45;&gt;{&#39;q3&#39;}</title>
<path fill="none" stroke="black" d="M63.04,-25.14C82.35,-27.23 101.25,-24.85 101.25,-18 101.25,-12.38 88.53,-9.77 73.3,-10.16"/>
<polygon fill="black" stroke="black" points="72.78,-6.69 63.04,-10.86 73.26,-13.68 72.78,-6.69"/>
<text text-anchor="middle" x="104.75" y="-13.8" font-family="Times,serif" font-size="14.00">1</text>
</g>
<!-- {&#39;q2&#39;}&#45;&gt;{&#39;q3&#39;} -->
<g id="edge6" class="edge">
<title>{&#39;q2&#39;}&#45;&gt;{&#39;q3&#39;}</title>
<path fill="none" stroke="black" d="M24.21,-87.28C22,-76.69 20.82,-64.85 22.63,-54 23.09,-51.24 23.74,-48.41 24.5,-45.61"/>
<polygon fill="black" stroke="black" points="27.92,-46.39 27.61,-35.8 21.25,-44.27 27.92,-46.39"/>
<text text-anchor="middle" x="26.13" y="-56.8" font-family="Times,serif" font-size="14.00">0</text>
</g>
<!-- {&#39;q2&#39;}&#45;&gt;{&#39;q3&#39;} -->
<g id="edge7" class="edge">
<title>{&#39;q2&#39;}&#45;&gt;{&#39;q3&#39;}</title>
<path fill="none" stroke="black" d="M34.63,-85.84C34.63,-72.94 34.63,-58.42 34.63,-46.21"/>
<polygon fill="black" stroke="black" points="38.13,-46.18 34.63,-36.18 31.13,-46.18 38.13,-46.18"/>
<text text-anchor="middle" x="38.13" y="-56.8" font-family="Times,serif" font-size="14.00">1</text>
</g>
</g>
</svg>
