<?xml version="1.0" encoding="UTF-8" standalone="no"?>
<!DOCTYPE svg PUBLIC "-//W3C//DTD SVG 1.1//EN"
 "http://www.w3.org/Graphics/SVG/1.1/DTD/svg11.dtd">
<!-- Generated by graphviz version 2.42.3 (20191010.1750)
 -->
<!-- Title: %3 Pages: 1 -->
<svg width="258pt" height="322pt"
 viewBox="0.00 0.00 258.17 322.25" xmlns="http://www.w3.org/2000/svg" xmlns:xlink="http://www.w3.org/1999/xlink">
<g id="graph0" class="graph" transform="scale(1 1) rotate(0) translate(4 318.25)">
<title>%3</title>
<polygon fill="white" stroke="transparent" points="-4,4 -4,-318.25 254.17,-318.25 254.17,4 -4,4"/>
<!-- fake -->
<g id="node1" class="node">
<title>fake</title>
</g>
<!-- {&#39;q0&#39;, &#39;q4&#39;} -->
<g id="node5" class="node">
<title>{&#39;q0&#39;, &#39;q4&#39;}</title>
<ellipse fill="none" stroke="black" cx="122.17" cy="-223.25" rx="47.16" ry="18"/>
<text text-anchor="middle" x="122.17" y="-219.05" font-family="Times,serif" font-size="14.00">{&#39;q0&#39;, &#39;q4&#39;}</text>
</g>
<!-- fake&#45;&gt;{&#39;q0&#39;, &#39;q4&#39;} -->
<g id="edge1" class="edge">
<title>fake&#45;&gt;{&#39;q0&#39;, &#39;q4&#39;}</title>
<path fill="none" stroke="black" stroke-width="2" d="M122.17,-278.07C122.17,-270.04 122.17,-260.3 122.17,-251.32"/>
<polygon fill="black" stroke="black" stroke-width="2" points="125.67,-251.28 122.17,-241.28 118.67,-251.28 125.67,-251.28"/>
</g>
<!-- {&#39;q6&#39;} -->
<g id="node2" class="node">
<title>{&#39;q6&#39;}</title>
<ellipse fill="none" stroke="black" cx="69.17" cy="-34.63" rx="30.75" ry="18"/>
<text text-anchor="middle" x="69.17" y="-30.43" font-family="Times,serif" font-size="14.00">{&#39;q6&#39;}</text>
</g>
<!-- {&#39;q6&#39;}&#45;&gt;{&#39;q6&#39;} -->
<g id="edge10" class="edge">
<title>{&#39;q6&#39;}&#45;&gt;{&#39;q6&#39;}</title>
<path fill="none" stroke="black" d="M94.19,-45.18C106.67,-46.64 117.8,-43.12 117.8,-34.63 117.8,-28.59 112.17,-25.06 104.44,-24.05"/>
<polygon fill="black" stroke="black" points="104.19,-20.55 94.19,-24.07 104.2,-27.55 104.19,-20.55"/>
<text text-anchor="middle" x="121.3" y="-30.43" font-family="Times,serif" font-size="14.00">0</text>
</g>
<!-- {&#39;q6&#39;}&#45;&gt;{&#39;q0&#39;, &#39;q4&#39;} -->
<g id="edge11" class="edge">
<title>{&#39;q6&#39;}&#45;&gt;{&#39;q0&#39;, &#39;q4&#39;}</title>
<path fill="none" stroke="black" d="M51.9,-49.82C26.57,-72.41 -15.42,-117.85 6.17,-155.25 21.17,-181.24 50.52,-198.05 75.94,-208.33"/>
<polygon fill="black" stroke="black" points="74.86,-211.67 85.45,-211.96 77.35,-205.13 74.86,-211.67"/>
<text text-anchor="middle" x="9.67" y="-133.05" font-family="Times,serif" font-size="14.00">1</text>
</g>
<!-- {&#39;q2&#39;} -->
<g id="node3" class="node">
<title>{&#39;q2&#39;}</title>
<ellipse fill="none" stroke="black" cx="181.17" cy="-34.63" rx="30.74" ry="30.74"/>
<ellipse fill="none" stroke="black" cx="181.17" cy="-34.63" rx="34.75" ry="34.75"/>
<text text-anchor="middle" x="181.17" y="-30.43" font-family="Times,serif" font-size="14.00">{&#39;q2&#39;}</text>
</g>
<!-- {&#39;q2&#39;}&#45;&gt;{&#39;q2&#39;} -->
<g id="edge7" class="edge">
<title>{&#39;q2&#39;}&#45;&gt;{&#39;q2&#39;}</title>
<path fill="none" stroke="black" d="M214.07,-45.5C225.03,-45.5 233.8,-41.88 233.8,-34.63 233.8,-29.87 230.02,-26.67 224.33,-25.04"/>
<polygon fill="black" stroke="black" points="224.42,-21.52 214.07,-23.75 223.55,-28.47 224.42,-21.52"/>
<text text-anchor="middle" x="237.3" y="-30.43" font-family="Times,serif" font-size="14.00">1</text>
</g>
<!-- {&#39;q2&#39;}&#45;&gt;{&#39;q0&#39;, &#39;q4&#39;} -->
<g id="edge6" class="edge">
<title>{&#39;q2&#39;}&#45;&gt;{&#39;q0&#39;, &#39;q4&#39;}</title>
<path fill="none" stroke="black" d="M205.77,-59.14C228.34,-83.7 255.68,-123.04 237.17,-155.25 222.37,-181.01 193.43,-197.8 168.28,-208.12"/>
<polygon fill="black" stroke="black" points="166.93,-204.89 158.87,-211.77 169.46,-211.42 166.93,-204.89"/>
<text text-anchor="middle" x="246.67" y="-133.05" font-family="Times,serif" font-size="14.00">0</text>
</g>
<!-- {&#39;q1&#39;, &#39;q7&#39;} -->
<g id="node4" class="node">
<title>{&#39;q1&#39;, &#39;q7&#39;}</title>
<ellipse fill="none" stroke="black" cx="181.17" cy="-137.25" rx="47.16" ry="18"/>
<text text-anchor="middle" x="181.17" y="-133.05" font-family="Times,serif" font-size="14.00">{&#39;q1&#39;, &#39;q7&#39;}</text>
</g>
<!-- {&#39;q1&#39;, &#39;q7&#39;}&#45;&gt;{&#39;q6&#39;} -->
<g id="edge4" class="edge">
<title>{&#39;q1&#39;, &#39;q7&#39;}&#45;&gt;{&#39;q6&#39;}</title>
<path fill="none" stroke="black" d="M163.67,-120.53C144.69,-103.47 114.26,-76.14 93.08,-57.11"/>
<polygon fill="black" stroke="black" points="95.24,-54.34 85.46,-50.26 90.56,-59.55 95.24,-54.34"/>
<text text-anchor="middle" x="144.67" y="-90.05" font-family="Times,serif" font-size="14.00">0</text>
</g>
<!-- {&#39;q1&#39;, &#39;q7&#39;}&#45;&gt;{&#39;q2&#39;} -->
<g id="edge5" class="edge">
<title>{&#39;q1&#39;, &#39;q7&#39;}&#45;&gt;{&#39;q2&#39;}</title>
<path fill="none" stroke="black" d="M181.17,-119.18C181.17,-108.26 181.17,-93.56 181.17,-79.54"/>
<polygon fill="black" stroke="black" points="184.67,-79.51 181.17,-69.51 177.67,-79.51 184.67,-79.51"/>
<text text-anchor="middle" x="184.67" y="-90.05" font-family="Times,serif" font-size="14.00">1</text>
</g>
<!-- {&#39;q0&#39;, &#39;q4&#39;}&#45;&gt;{&#39;q1&#39;, &#39;q7&#39;} -->
<g id="edge2" class="edge">
<title>{&#39;q0&#39;, &#39;q4&#39;}&#45;&gt;{&#39;q1&#39;, &#39;q7&#39;}</title>
<path fill="none" stroke="black" d="M133.83,-205.66C142.32,-193.58 153.95,-177.01 163.57,-163.32"/>
<polygon fill="black" stroke="black" points="166.66,-165.01 169.54,-154.81 160.93,-160.99 166.66,-165.01"/>
<text text-anchor="middle" x="158.67" y="-176.05" font-family="Times,serif" font-size="14.00">0</text>
</g>
<!-- {&#39;q3&#39;, &#39;q5&#39;} -->
<g id="node6" class="node">
<title>{&#39;q3&#39;, &#39;q5&#39;}</title>
<ellipse fill="none" stroke="black" cx="69.17" cy="-137.25" rx="47.16" ry="18"/>
<text text-anchor="middle" x="69.17" y="-133.05" font-family="Times,serif" font-size="14.00">{&#39;q3&#39;, &#39;q5&#39;}</text>
</g>
<!-- {&#39;q0&#39;, &#39;q4&#39;}&#45;&gt;{&#39;q3&#39;, &#39;q5&#39;} -->
<g id="edge3" class="edge">
<title>{&#39;q0&#39;, &#39;q4&#39;}&#45;&gt;{&#39;q3&#39;, &#39;q5&#39;}</title>
<path fill="none" stroke="black" d="M111.7,-205.66C104.08,-193.58 93.62,-177.01 84.99,-163.32"/>
<polygon fill="black" stroke="black" points="87.92,-161.4 79.62,-154.81 82,-165.14 87.92,-161.4"/>
<text text-anchor="middle" x="101.67" y="-176.05" font-family="Times,serif" font-size="14.00">1</text>
</g>
<!-- {&#39;q3&#39;, &#39;q5&#39;}&#45;&gt;{&#39;q6&#39;} -->
<g id="edge9" class="edge">
<title>{&#39;q3&#39;, &#39;q5&#39;}&#45;&gt;{&#39;q6&#39;}</title>
<path fill="none" stroke="black" d="M69.17,-119.18C69.17,-103.79 69.17,-80.87 69.17,-62.93"/>
<polygon fill="black" stroke="black" points="72.67,-62.78 69.17,-52.78 65.67,-62.78 72.67,-62.78"/>
<text text-anchor="middle" x="72.67" y="-90.05" font-family="Times,serif" font-size="14.00">1</text>
</g>
<!-- {&#39;q3&#39;, &#39;q5&#39;}&#45;&gt;{&#39;q2&#39;} -->
<g id="edge8" class="edge">
<title>{&#39;q3&#39;, &#39;q5&#39;}&#45;&gt;{&#39;q2&#39;}</title>
<path fill="none" stroke="black" d="M84.28,-119.89C93.51,-110.13 105.71,-97.66 117.17,-87.25 126.34,-78.93 136.64,-70.32 146.25,-62.58"/>
<polygon fill="black" stroke="black" points="148.49,-65.27 154.13,-56.3 144.13,-59.8 148.49,-65.27"/>
<text text-anchor="middle" x="120.67" y="-90.05" font-family="Times,serif" font-size="14.00">0</text>
</g>
</g>
</svg>
