<?xml version="1.0" encoding="UTF-8" standalone="no"?>
<!DOCTYPE svg PUBLIC "-//W3C//DTD SVG 1.1//EN"
 "http://www.w3.org/Graphics/SVG/1.1/DTD/svg11.dtd">
<!-- Generated by graphviz version 2.42.3 (20191010.1750)
 -->
<!-- Title: %3 Pages: 1 -->
<svg width="263pt" height="659pt"
 viewBox="0.00 0.00 262.53 659.12" xmlns="http://www.w3.org/2000/svg" xmlns:xlink="http://www.w3.org/1999/xlink">
<g id="graph0" class="graph" transform="scale(1 1) rotate(0) translate(4 655.12)">
<title>%3</title>
<polygon fill="white" stroke="transparent" points="-4,4 -4,-655.12 258.53,-655.12 258.53,4 -4,4"/>
<!-- fake -->
<g id="node1" class="node">
<title>fake</title>
</g>
<!-- {&#39;q0&#39;} -->
<g id="node2" class="node">
<title>{&#39;q0&#39;}</title>
<ellipse fill="none" stroke="black" cx="210.53" cy="-560.12" rx="30.75" ry="18"/>
<text text-anchor="middle" x="210.53" y="-555.92" font-family="Times,serif" font-size="14.00">{&#39;q0&#39;}</text>
</g>
<!-- fake&#45;&gt;{&#39;q0&#39;} -->
<g id="edge1" class="edge">
<title>fake&#45;&gt;{&#39;q0&#39;}</title>
<path fill="none" stroke="black" stroke-width="2" d="M210.53,-614.93C210.53,-606.91 210.53,-597.17 210.53,-588.19"/>
<polygon fill="black" stroke="black" stroke-width="2" points="214.03,-588.15 210.53,-578.15 207.03,-588.15 214.03,-588.15"/>
</g>
<!-- {&#39;q0&#39;, &#39;q1&#39;} -->
<g id="node4" class="node">
<title>{&#39;q0&#39;, &#39;q1&#39;}</title>
<ellipse fill="none" stroke="black" cx="172.53" cy="-474.12" rx="47.16" ry="18"/>
<text text-anchor="middle" x="172.53" y="-469.92" font-family="Times,serif" font-size="14.00">{&#39;q0&#39;, &#39;q1&#39;}</text>
</g>
<!-- {&#39;q0&#39;}&#45;&gt;{&#39;q0&#39;, &#39;q1&#39;} -->
<g id="edge3" class="edge">
<title>{&#39;q0&#39;}&#45;&gt;{&#39;q0&#39;, &#39;q1&#39;}</title>
<path fill="none" stroke="black" d="M203.02,-542.53C197.7,-530.75 190.44,-514.71 184.34,-501.23"/>
<polygon fill="black" stroke="black" points="187.46,-499.64 180.15,-491.97 181.09,-502.52 187.46,-499.64"/>
<text text-anchor="middle" x="197.03" y="-512.92" font-family="Times,serif" font-size="14.00">0</text>
</g>
<!-- {&#39;q0&#39;, &#39;q2&#39;} -->
<g id="node5" class="node">
<title>{&#39;q0&#39;, &#39;q2&#39;}</title>
<ellipse fill="none" stroke="black" cx="151.53" cy="-18" rx="47.16" ry="18"/>
<text text-anchor="middle" x="151.53" y="-13.8" font-family="Times,serif" font-size="14.00">{&#39;q0&#39;, &#39;q2&#39;}</text>
</g>
<!-- {&#39;q0&#39;}&#45;&gt;{&#39;q0&#39;, &#39;q2&#39;} -->
<g id="edge2" class="edge">
<title>{&#39;q0&#39;}&#45;&gt;{&#39;q0&#39;, &#39;q2&#39;}</title>
<path fill="none" stroke="black" d="M222.24,-543.3C233.08,-527.06 247.53,-500.62 247.53,-475.12 247.53,-475.12 247.53,-475.12 247.53,-152.53 247.53,-121.78 245.03,-111.95 228.53,-86 216.98,-67.83 199.05,-51.82 183.39,-40.01"/>
<polygon fill="black" stroke="black" points="185.13,-36.94 174.99,-33.89 181.01,-42.6 185.13,-36.94"/>
<text text-anchor="middle" x="251.03" y="-334.39" font-family="Times,serif" font-size="14.00">1</text>
</g>
<!-- {&#39;q0&#39;, &#39;q1&#39;, &#39;q3&#39;} -->
<g id="node3" class="node">
<title>{&#39;q0&#39;, &#39;q1&#39;, &#39;q3&#39;}</title>
<ellipse fill="none" stroke="black" cx="67.53" cy="-338.59" rx="63.56" ry="63.56"/>
<ellipse fill="none" stroke="black" cx="67.53" cy="-338.59" rx="67.56" ry="67.56"/>
<text text-anchor="middle" x="67.53" y="-334.39" font-family="Times,serif" font-size="14.00">{&#39;q0&#39;, &#39;q1&#39;, &#39;q3&#39;}</text>
</g>
<!-- {&#39;q0&#39;, &#39;q1&#39;, &#39;q3&#39;}&#45;&gt;{&#39;q0&#39;, &#39;q1&#39;, &#39;q3&#39;} -->
<g id="edge9" class="edge">
<title>{&#39;q0&#39;, &#39;q1&#39;, &#39;q3&#39;}&#45;&gt;{&#39;q0&#39;, &#39;q1&#39;, &#39;q3&#39;}</title>
<path fill="none" stroke="black" d="M133.15,-354.83C144.87,-352.72 153.06,-347.31 153.06,-338.59 153.06,-332.6 149.19,-328.17 142.96,-325.3"/>
<polygon fill="black" stroke="black" points="143.74,-321.88 133.15,-322.35 141.73,-328.58 143.74,-321.88"/>
<text text-anchor="middle" x="156.56" y="-334.39" font-family="Times,serif" font-size="14.00">0</text>
</g>
<!-- {&#39;q3&#39;, &#39;q0&#39;, &#39;q2&#39;} -->
<g id="node6" class="node">
<title>{&#39;q3&#39;, &#39;q0&#39;, &#39;q2&#39;}</title>
<ellipse fill="none" stroke="black" cx="151.53" cy="-153.53" rx="63.56" ry="63.56"/>
<ellipse fill="none" stroke="black" cx="151.53" cy="-153.53" rx="67.56" ry="67.56"/>
<text text-anchor="middle" x="151.53" y="-149.33" font-family="Times,serif" font-size="14.00">{&#39;q3&#39;, &#39;q0&#39;, &#39;q2&#39;}</text>
</g>
<!-- {&#39;q0&#39;, &#39;q1&#39;, &#39;q3&#39;}&#45;&gt;{&#39;q3&#39;, &#39;q0&#39;, &#39;q2&#39;} -->
<g id="edge8" class="edge">
<title>{&#39;q0&#39;, &#39;q1&#39;, &#39;q3&#39;}&#45;&gt;{&#39;q3&#39;, &#39;q0&#39;, &#39;q2&#39;}</title>
<path fill="none" stroke="black" d="M98.41,-278.3C102.59,-269.87 106.74,-261.28 110.53,-253.06 114.61,-244.23 118.74,-234.88 122.72,-225.59"/>
<polygon fill="black" stroke="black" points="125.96,-226.91 126.66,-216.34 119.52,-224.17 125.96,-226.91"/>
<text text-anchor="middle" x="119.03" y="-241.86" font-family="Times,serif" font-size="14.00">1</text>
</g>
<!-- {&#39;q0&#39;, &#39;q1&#39;}&#45;&gt;{&#39;q0&#39;, &#39;q1&#39;, &#39;q3&#39;} -->
<g id="edge7" class="edge">
<title>{&#39;q0&#39;, &#39;q1&#39;}&#45;&gt;{&#39;q0&#39;, &#39;q1&#39;, &#39;q3&#39;}</title>
<path fill="none" stroke="black" d="M159.66,-456.75C148.44,-442.48 131.45,-420.88 115.11,-400.1"/>
<polygon fill="black" stroke="black" points="117.82,-397.88 108.89,-392.19 112.32,-402.21 117.82,-397.88"/>
<text text-anchor="middle" x="147.03" y="-426.92" font-family="Times,serif" font-size="14.00">0</text>
</g>
<!-- {&#39;q0&#39;, &#39;q1&#39;}&#45;&gt;{&#39;q3&#39;, &#39;q0&#39;, &#39;q2&#39;} -->
<g id="edge6" class="edge">
<title>{&#39;q0&#39;, &#39;q1&#39;}&#45;&gt;{&#39;q3&#39;, &#39;q0&#39;, &#39;q2&#39;}</title>
<path fill="none" stroke="black" d="M173.07,-456.05C174,-421.21 175.29,-339.41 169.53,-271.06 168.42,-257.89 166.73,-243.96 164.81,-230.48"/>
<polygon fill="black" stroke="black" points="168.23,-229.67 163.31,-220.28 161.31,-230.68 168.23,-229.67"/>
<text text-anchor="middle" x="177.03" y="-334.39" font-family="Times,serif" font-size="14.00">1</text>
</g>
<!-- {&#39;q0&#39;, &#39;q2&#39;}&#45;&gt;{&#39;q0&#39;, &#39;q1&#39;, &#39;q3&#39;} -->
<g id="edge5" class="edge">
<title>{&#39;q0&#39;, &#39;q2&#39;}&#45;&gt;{&#39;q0&#39;, &#39;q1&#39;, &#39;q3&#39;}</title>
<path fill="none" stroke="black" d="M123.64,-32.59C103.96,-43.88 79.1,-61.97 67.53,-86 41.15,-140.79 43.46,-210.39 51.06,-262.5"/>
<polygon fill="black" stroke="black" points="47.65,-263.33 52.64,-272.67 54.56,-262.25 47.65,-263.33"/>
<text text-anchor="middle" x="71.03" y="-149.33" font-family="Times,serif" font-size="14.00">0</text>
</g>
<!-- {&#39;q0&#39;, &#39;q2&#39;}&#45;&gt;{&#39;q0&#39;, &#39;q2&#39;} -->
<g id="edge4" class="edge">
<title>{&#39;q0&#39;, &#39;q2&#39;}&#45;&gt;{&#39;q0&#39;, &#39;q2&#39;}</title>
<path fill="none" stroke="black" d="M194.09,-25.86C206.76,-25.62 216.61,-23 216.61,-18 216.61,-14.48 211.74,-12.14 204.44,-10.98"/>
<polygon fill="black" stroke="black" points="204.34,-7.46 194.09,-10.14 203.78,-14.44 204.34,-7.46"/>
<text text-anchor="middle" x="220.11" y="-13.8" font-family="Times,serif" font-size="14.00">1</text>
</g>
<!-- {&#39;q3&#39;, &#39;q0&#39;, &#39;q2&#39;}&#45;&gt;{&#39;q0&#39;, &#39;q1&#39;, &#39;q3&#39;} -->
<g id="edge11" class="edge">
<title>{&#39;q3&#39;, &#39;q0&#39;, &#39;q2&#39;}&#45;&gt;{&#39;q0&#39;, &#39;q1&#39;, &#39;q3&#39;}</title>
<path fill="none" stroke="black" d="M116.6,-211.52C111.6,-220.59 106.73,-229.98 102.53,-239.06 98.75,-247.23 95.12,-255.93 91.73,-264.64"/>
<polygon fill="black" stroke="black" points="88.42,-263.5 88.14,-274.09 94.97,-265.98 88.42,-263.5"/>
<text text-anchor="middle" x="106.03" y="-241.86" font-family="Times,serif" font-size="14.00">0</text>
</g>
<!-- {&#39;q3&#39;, &#39;q0&#39;, &#39;q2&#39;}&#45;&gt;{&#39;q0&#39;, &#39;q2&#39;} -->
<g id="edge10" class="edge">
<title>{&#39;q3&#39;, &#39;q0&#39;, &#39;q2&#39;}&#45;&gt;{&#39;q0&#39;, &#39;q2&#39;}</title>
<path fill="none" stroke="black" d="M151.53,-85.77C151.53,-71.83 151.53,-57.9 151.53,-46.39"/>
<polygon fill="black" stroke="black" points="155.03,-46.18 151.53,-36.18 148.03,-46.18 155.03,-46.18"/>
<text text-anchor="middle" x="155.03" y="-56.8" font-family="Times,serif" font-size="14.00">1</text>
</g>
</g>
</svg>
