<?xml version="1.0" encoding="UTF-8" standalone="no"?>
<!DOCTYPE svg PUBLIC "-//W3C//DTD SVG 1.1//EN"
 "http://www.w3.org/Graphics/SVG/1.1/DTD/svg11.dtd">
<!-- Generated by graphviz version 2.42.3 (20191010.1750)
 -->
<!-- Title: %3 Pages: 1 -->
<svg width="254pt" height="573pt"
 viewBox="0.00 0.00 253.88 573.12" xmlns="http://www.w3.org/2000/svg" xmlns:xlink="http://www.w3.org/1999/xlink">
<g id="graph0" class="graph" transform="scale(1 1) rotate(0) translate(4 569.12)">
<title>%3</title>
<polygon fill="white" stroke="transparent" points="-4,4 -4,-569.12 249.88,-569.12 249.88,4 -4,4"/>
<!-- fake -->
<g id="node1" class="node">
<title>fake</title>
</g>
<!-- {&#39;q0&#39;} -->
<g id="node2" class="node">
<title>{&#39;q0&#39;}</title>
<ellipse fill="none" stroke="black" cx="129.81" cy="-474.12" rx="30.75" ry="18"/>
<text text-anchor="middle" x="129.81" y="-469.92" font-family="Times,serif" font-size="14.00">{&#39;q0&#39;}</text>
</g>
<!-- fake&#45;&gt;{&#39;q0&#39;} -->
<g id="edge1" class="edge">
<title>fake&#45;&gt;{&#39;q0&#39;}</title>
<path fill="none" stroke="black" stroke-width="2" d="M129.81,-528.93C129.81,-520.91 129.81,-511.17 129.81,-502.19"/>
<polygon fill="black" stroke="black" stroke-width="2" points="133.31,-502.15 129.81,-492.15 126.31,-502.15 133.31,-502.15"/>
</g>
<!-- {&#39;q2&#39;, &#39;q0&#39;} -->
<g id="node5" class="node">
<title>{&#39;q2&#39;, &#39;q0&#39;}</title>
<ellipse fill="none" stroke="black" cx="61.81" cy="-388.12" rx="47.16" ry="18"/>
<text text-anchor="middle" x="61.81" y="-383.92" font-family="Times,serif" font-size="14.00">{&#39;q2&#39;, &#39;q0&#39;}</text>
</g>
<!-- {&#39;q0&#39;}&#45;&gt;{&#39;q2&#39;, &#39;q0&#39;} -->
<g id="edge3" class="edge">
<title>{&#39;q0&#39;}&#45;&gt;{&#39;q2&#39;, &#39;q0&#39;}</title>
<path fill="none" stroke="black" d="M117.02,-457.32C106.98,-444.93 92.84,-427.46 81.39,-413.31"/>
<polygon fill="black" stroke="black" points="84.01,-410.99 75,-405.42 78.57,-415.4 84.01,-410.99"/>
<text text-anchor="middle" x="104.31" y="-426.92" font-family="Times,serif" font-size="14.00">1</text>
</g>
<!-- {&#39;q1&#39;, &#39;q0&#39;} -->
<g id="node6" class="node">
<title>{&#39;q1&#39;, &#39;q0&#39;}</title>
<ellipse fill="none" stroke="black" cx="198.81" cy="-388.12" rx="47.16" ry="18"/>
<text text-anchor="middle" x="198.81" y="-383.92" font-family="Times,serif" font-size="14.00">{&#39;q1&#39;, &#39;q0&#39;}</text>
</g>
<!-- {&#39;q0&#39;}&#45;&gt;{&#39;q1&#39;, &#39;q0&#39;} -->
<g id="edge2" class="edge">
<title>{&#39;q0&#39;}&#45;&gt;{&#39;q1&#39;, &#39;q0&#39;}</title>
<path fill="none" stroke="black" d="M142.46,-457.71C152.61,-445.36 167.04,-427.79 178.75,-413.53"/>
<polygon fill="black" stroke="black" points="181.64,-415.53 185.29,-405.58 176.23,-411.08 181.64,-415.53"/>
<text text-anchor="middle" x="171.31" y="-426.92" font-family="Times,serif" font-size="14.00">0</text>
</g>
<!-- {&#39;q2&#39;, &#39;q0&#39;, &#39;q3&#39;} -->
<g id="node3" class="node">
<title>{&#39;q2&#39;, &#39;q0&#39;, &#39;q3&#39;}</title>
<ellipse fill="none" stroke="black" cx="97.81" cy="-67.53" rx="63.56" ry="63.56"/>
<ellipse fill="none" stroke="black" cx="97.81" cy="-67.53" rx="67.56" ry="67.56"/>
<text text-anchor="middle" x="97.81" y="-63.33" font-family="Times,serif" font-size="14.00">{&#39;q2&#39;, &#39;q0&#39;, &#39;q3&#39;}</text>
</g>
<!-- {&#39;q1&#39;, &#39;q0&#39;, &#39;q3&#39;} -->
<g id="node4" class="node">
<title>{&#39;q1&#39;, &#39;q0&#39;, &#39;q3&#39;}</title>
<ellipse fill="none" stroke="black" cx="97.81" cy="-252.59" rx="63.56" ry="63.56"/>
<ellipse fill="none" stroke="black" cx="97.81" cy="-252.59" rx="67.56" ry="67.56"/>
<text text-anchor="middle" x="97.81" y="-248.39" font-family="Times,serif" font-size="14.00">{&#39;q1&#39;, &#39;q0&#39;, &#39;q3&#39;}</text>
</g>
<!-- {&#39;q2&#39;, &#39;q0&#39;, &#39;q3&#39;}&#45;&gt;{&#39;q1&#39;, &#39;q0&#39;, &#39;q3&#39;} -->
<g id="edge10" class="edge">
<title>{&#39;q2&#39;, &#39;q0&#39;, &#39;q3&#39;}&#45;&gt;{&#39;q1&#39;, &#39;q0&#39;, &#39;q3&#39;}</title>
<path fill="none" stroke="black" d="M97.81,-135.09C97.81,-148.04 97.81,-161.71 97.81,-174.96"/>
<polygon fill="black" stroke="black" points="94.31,-174.98 97.81,-184.98 101.31,-174.98 94.31,-174.98"/>
<text text-anchor="middle" x="101.31" y="-155.86" font-family="Times,serif" font-size="14.00">0</text>
</g>
<!-- {&#39;q2&#39;, &#39;q0&#39;, &#39;q3&#39;}&#45;&gt;{&#39;q2&#39;, &#39;q0&#39;} -->
<g id="edge11" class="edge">
<title>{&#39;q2&#39;, &#39;q0&#39;, &#39;q3&#39;}&#45;&gt;{&#39;q2&#39;, &#39;q0&#39;}</title>
<path fill="none" stroke="black" d="M52.11,-117.45C36.84,-136.98 21.7,-160.62 13.81,-185.06 -4.64,-242.18 -4.55,-262.97 13.81,-320.12 18.93,-336.06 29.39,-351.43 39.25,-363.41"/>
<polygon fill="black" stroke="black" points="36.72,-365.84 45.9,-371.13 42.03,-361.27 36.72,-365.84"/>
<text text-anchor="middle" x="17.31" y="-248.39" font-family="Times,serif" font-size="14.00">1</text>
</g>
<!-- {&#39;q1&#39;, &#39;q0&#39;, &#39;q3&#39;}&#45;&gt;{&#39;q2&#39;, &#39;q0&#39;, &#39;q3&#39;} -->
<g id="edge9" class="edge">
<title>{&#39;q1&#39;, &#39;q0&#39;, &#39;q3&#39;}&#45;&gt;{&#39;q2&#39;, &#39;q0&#39;, &#39;q3&#39;}</title>
<path fill="none" stroke="black" d="M86.28,-185.96C85.37,-174.99 85.05,-163.72 85.81,-153.06 86.01,-150.22 86.24,-147.33 86.51,-144.41"/>
<polygon fill="black" stroke="black" points="90,-144.73 87.54,-134.42 83.04,-144.01 90,-144.73"/>
<text text-anchor="middle" x="89.31" y="-155.86" font-family="Times,serif" font-size="14.00">1</text>
</g>
<!-- {&#39;q1&#39;, &#39;q0&#39;, &#39;q3&#39;}&#45;&gt;{&#39;q1&#39;, &#39;q0&#39;, &#39;q3&#39;} -->
<g id="edge8" class="edge">
<title>{&#39;q1&#39;, &#39;q0&#39;, &#39;q3&#39;}&#45;&gt;{&#39;q1&#39;, &#39;q0&#39;, &#39;q3&#39;}</title>
<path fill="none" stroke="black" d="M163.43,-268.83C175.15,-266.72 183.34,-261.31 183.34,-252.59 183.34,-246.6 179.47,-242.17 173.24,-239.3"/>
<polygon fill="black" stroke="black" points="174.01,-235.88 163.43,-236.35 172,-242.58 174.01,-235.88"/>
<text text-anchor="middle" x="186.84" y="-248.39" font-family="Times,serif" font-size="14.00">0</text>
</g>
<!-- {&#39;q2&#39;, &#39;q0&#39;}&#45;&gt;{&#39;q1&#39;, &#39;q0&#39;, &#39;q3&#39;} -->
<g id="edge6" class="edge">
<title>{&#39;q2&#39;, &#39;q0&#39;}&#45;&gt;{&#39;q1&#39;, &#39;q0&#39;, &#39;q3&#39;}</title>
<path fill="none" stroke="black" d="M66.44,-369.94C69.43,-358.85 73.54,-343.6 77.81,-327.77"/>
<polygon fill="black" stroke="black" points="81.25,-328.45 80.47,-317.88 74.49,-326.63 81.25,-328.45"/>
<text text-anchor="middle" x="78.31" y="-340.92" font-family="Times,serif" font-size="14.00">0</text>
</g>
<!-- {&#39;q2&#39;, &#39;q0&#39;}&#45;&gt;{&#39;q2&#39;, &#39;q0&#39;} -->
<g id="edge7" class="edge">
<title>{&#39;q2&#39;, &#39;q0&#39;}&#45;&gt;{&#39;q2&#39;, &#39;q0&#39;}</title>
<path fill="none" stroke="black" d="M104.37,-395.98C117.03,-395.74 126.88,-393.13 126.88,-388.12 126.88,-384.6 122.01,-382.26 114.72,-381.1"/>
<polygon fill="black" stroke="black" points="114.62,-377.58 104.37,-380.26 114.05,-384.56 114.62,-377.58"/>
<text text-anchor="middle" x="130.38" y="-383.92" font-family="Times,serif" font-size="14.00">1</text>
</g>
<!-- {&#39;q1&#39;, &#39;q0&#39;}&#45;&gt;{&#39;q2&#39;, &#39;q0&#39;, &#39;q3&#39;} -->
<g id="edge5" class="edge">
<title>{&#39;q1&#39;, &#39;q0&#39;}&#45;&gt;{&#39;q2&#39;, &#39;q0&#39;, &#39;q3&#39;}</title>
<path fill="none" stroke="black" d="M202.81,-370.18C210.42,-334.53 224.12,-249.75 199.81,-185.06 190.58,-160.51 173.57,-137.75 156.06,-118.98"/>
<polygon fill="black" stroke="black" points="158.53,-116.5 149.07,-111.72 153.48,-121.35 158.53,-116.5"/>
<text text-anchor="middle" x="216.31" y="-248.39" font-family="Times,serif" font-size="14.00">1</text>
</g>
<!-- {&#39;q1&#39;, &#39;q0&#39;}&#45;&gt;{&#39;q1&#39;, &#39;q0&#39;, &#39;q3&#39;} -->
<g id="edge4" class="edge">
<title>{&#39;q1&#39;, &#39;q0&#39;}&#45;&gt;{&#39;q1&#39;, &#39;q0&#39;, &#39;q3&#39;}</title>
<path fill="none" stroke="black" d="M186.42,-370.75C175.82,-356.73 159.86,-335.63 144.39,-315.18"/>
<polygon fill="black" stroke="black" points="147.09,-312.95 138.27,-307.09 141.51,-317.17 147.09,-312.95"/>
<text text-anchor="middle" x="174.31" y="-340.92" font-family="Times,serif" font-size="14.00">0</text>
</g>
</g>
</svg>
