<?xml version="1.0" encoding="UTF-8" standalone="no"?>
<!DOCTYPE svg PUBLIC "-//W3C//DTD SVG 1.1//EN"
 "http://www.w3.org/Graphics/SVG/1.1/DTD/svg11.dtd">
<!-- Generated by graphviz version 2.42.3 (20191010.1750)
 -->
<!-- Title: %3 Pages: 1 -->
<svg width="248pt" height="659pt"
 viewBox="0.00 0.00 247.83 659.12" xmlns="http://www.w3.org/2000/svg" xmlns:xlink="http://www.w3.org/1999/xlink">
<g id="graph0" class="graph" transform="scale(1 1) rotate(0) translate(4 655.12)">
<title>%3</title>
<polygon fill="white" stroke="transparent" points="-4,4 -4,-655.12 243.83,-655.12 243.83,4 -4,4"/>
<!-- fake -->
<g id="node1" class="node">
<title>fake</title>
</g>
<!-- {&#39;q0&#39;} -->
<g id="node4" class="node">
<title>{&#39;q0&#39;}</title>
<ellipse fill="none" stroke="black" cx="143.75" cy="-560.12" rx="30.75" ry="18"/>
<text text-anchor="middle" x="143.75" y="-555.92" font-family="Times,serif" font-size="14.00">{&#39;q0&#39;}</text>
</g>
<!-- fake&#45;&gt;{&#39;q0&#39;} -->
<g id="edge1" class="edge">
<title>fake&#45;&gt;{&#39;q0&#39;}</title>
<path fill="none" stroke="black" stroke-width="2" d="M143.75,-614.93C143.75,-606.91 143.75,-597.17 143.75,-588.19"/>
<polygon fill="black" stroke="black" stroke-width="2" points="147.25,-588.15 143.75,-578.15 140.25,-588.15 147.25,-588.15"/>
</g>
<!-- {&#39;q0&#39;, &#39;q1&#39;} -->
<g id="node2" class="node">
<title>{&#39;q0&#39;, &#39;q1&#39;}</title>
<ellipse fill="none" stroke="black" cx="95.75" cy="-474.12" rx="47.16" ry="18"/>
<text text-anchor="middle" x="95.75" y="-469.92" font-family="Times,serif" font-size="14.00">{&#39;q0&#39;, &#39;q1&#39;}</text>
</g>
<!-- {&#39;q0&#39;, &#39;q2&#39;, &#39;q3&#39;} -->
<g id="node5" class="node">
<title>{&#39;q0&#39;, &#39;q2&#39;, &#39;q3&#39;}</title>
<ellipse fill="none" stroke="black" cx="95.75" cy="-338.59" rx="63.56" ry="63.56"/>
<ellipse fill="none" stroke="black" cx="95.75" cy="-338.59" rx="67.56" ry="67.56"/>
<text text-anchor="middle" x="95.75" y="-334.39" font-family="Times,serif" font-size="14.00">{&#39;q0&#39;, &#39;q2&#39;, &#39;q3&#39;}</text>
</g>
<!-- {&#39;q0&#39;, &#39;q1&#39;}&#45;&gt;{&#39;q0&#39;, &#39;q2&#39;, &#39;q3&#39;} -->
<g id="edge6" class="edge">
<title>{&#39;q0&#39;, &#39;q1&#39;}&#45;&gt;{&#39;q0&#39;, &#39;q2&#39;, &#39;q3&#39;}</title>
<path fill="none" stroke="black" d="M95.75,-455.94C95.75,-445.52 95.75,-431.42 95.75,-416.62"/>
<polygon fill="black" stroke="black" points="99.25,-416.31 95.75,-406.31 92.25,-416.31 99.25,-416.31"/>
<text text-anchor="middle" x="99.25" y="-426.92" font-family="Times,serif" font-size="14.00">0</text>
</g>
<!-- {&#39;q0&#39;, &#39;q1&#39;, &#39;q3&#39;} -->
<g id="node6" class="node">
<title>{&#39;q0&#39;, &#39;q1&#39;, &#39;q3&#39;}</title>
<ellipse fill="none" stroke="black" cx="73.75" cy="-67.53" rx="63.56" ry="63.56"/>
<ellipse fill="none" stroke="black" cx="73.75" cy="-67.53" rx="67.56" ry="67.56"/>
<text text-anchor="middle" x="73.75" y="-63.33" font-family="Times,serif" font-size="14.00">{&#39;q0&#39;, &#39;q1&#39;, &#39;q3&#39;}</text>
</g>
<!-- {&#39;q0&#39;, &#39;q1&#39;}&#45;&gt;{&#39;q0&#39;, &#39;q1&#39;, &#39;q3&#39;} -->
<g id="edge7" class="edge">
<title>{&#39;q0&#39;, &#39;q1&#39;}&#45;&gt;{&#39;q0&#39;, &#39;q1&#39;, &#39;q3&#39;}</title>
<path fill="none" stroke="black" d="M70.12,-458.96C52.05,-447.39 29.25,-429.18 18.75,-406.12 -20.88,-319.1 11.1,-207.99 40.29,-137.52"/>
<polygon fill="black" stroke="black" points="43.52,-138.86 44.2,-128.28 37.08,-136.13 43.52,-138.86"/>
<text text-anchor="middle" x="12.25" y="-241.86" font-family="Times,serif" font-size="14.00">1</text>
</g>
<!-- {&#39;q0&#39;, &#39;q2&#39;} -->
<g id="node3" class="node">
<title>{&#39;q0&#39;, &#39;q2&#39;}</title>
<ellipse fill="none" stroke="black" cx="167.75" cy="-203.06" rx="47.16" ry="18"/>
<text text-anchor="middle" x="167.75" y="-198.86" font-family="Times,serif" font-size="14.00">{&#39;q0&#39;, &#39;q2&#39;}</text>
</g>
<!-- {&#39;q0&#39;, &#39;q2&#39;}&#45;&gt;{&#39;q0&#39;, &#39;q2&#39;} -->
<g id="edge4" class="edge">
<title>{&#39;q0&#39;, &#39;q2&#39;}&#45;&gt;{&#39;q0&#39;, &#39;q2&#39;}</title>
<path fill="none" stroke="black" d="M210.31,-210.92C222.97,-210.68 232.83,-208.06 232.83,-203.06 232.83,-199.54 227.96,-197.2 220.66,-196.04"/>
<polygon fill="black" stroke="black" points="220.56,-192.52 210.31,-195.2 219.99,-199.5 220.56,-192.52"/>
<text text-anchor="middle" x="236.33" y="-198.86" font-family="Times,serif" font-size="14.00">0</text>
</g>
<!-- {&#39;q0&#39;, &#39;q2&#39;}&#45;&gt;{&#39;q0&#39;, &#39;q1&#39;, &#39;q3&#39;} -->
<g id="edge5" class="edge">
<title>{&#39;q0&#39;, &#39;q2&#39;}&#45;&gt;{&#39;q0&#39;, &#39;q1&#39;, &#39;q3&#39;}</title>
<path fill="none" stroke="black" d="M156.03,-185.42C146.43,-171.78 132.2,-151.56 118.25,-131.75"/>
<polygon fill="black" stroke="black" points="120.93,-129.47 112.31,-123.31 115.21,-133.5 120.93,-129.47"/>
<text text-anchor="middle" x="146.25" y="-155.86" font-family="Times,serif" font-size="14.00">1</text>
</g>
<!-- {&#39;q0&#39;}&#45;&gt;{&#39;q0&#39;, &#39;q1&#39;} -->
<g id="edge3" class="edge">
<title>{&#39;q0&#39;}&#45;&gt;{&#39;q0&#39;, &#39;q1&#39;}</title>
<path fill="none" stroke="black" d="M134.49,-542.93C127.68,-530.99 118.27,-514.53 110.43,-500.81"/>
<polygon fill="black" stroke="black" points="113.3,-498.79 105.3,-491.84 107.23,-502.26 113.3,-498.79"/>
<text text-anchor="middle" x="126.25" y="-512.92" font-family="Times,serif" font-size="14.00">1</text>
</g>
<!-- {&#39;q0&#39;}&#45;&gt;{&#39;q0&#39;, &#39;q2&#39;} -->
<g id="edge2" class="edge">
<title>{&#39;q0&#39;}&#45;&gt;{&#39;q0&#39;, &#39;q2&#39;}</title>
<path fill="none" stroke="black" d="M148.01,-542.29C154.87,-514.27 168.05,-456.19 172.75,-406.12 178.36,-346.36 174.98,-331.05 172.75,-271.06 172.26,-257.9 171.23,-243.31 170.23,-231.12"/>
<polygon fill="black" stroke="black" points="173.71,-230.78 169.37,-221.11 166.74,-231.38 173.71,-230.78"/>
<text text-anchor="middle" x="174.25" y="-426.92" font-family="Times,serif" font-size="14.00">0</text>
</g>
<!-- {&#39;q0&#39;, &#39;q2&#39;, &#39;q3&#39;}&#45;&gt;{&#39;q0&#39;, &#39;q2&#39;} -->
<g id="edge10" class="edge">
<title>{&#39;q0&#39;, &#39;q2&#39;, &#39;q3&#39;}&#45;&gt;{&#39;q0&#39;, &#39;q2&#39;}</title>
<path fill="none" stroke="black" d="M127.54,-278.63C136.78,-261.49 146.4,-243.65 153.91,-229.72"/>
<polygon fill="black" stroke="black" points="157.08,-231.22 158.75,-220.76 150.92,-227.9 157.08,-231.22"/>
<text text-anchor="middle" x="152.25" y="-241.86" font-family="Times,serif" font-size="14.00">0</text>
</g>
<!-- {&#39;q0&#39;, &#39;q2&#39;, &#39;q3&#39;}&#45;&gt;{&#39;q0&#39;, &#39;q1&#39;, &#39;q3&#39;} -->
<g id="edge11" class="edge">
<title>{&#39;q0&#39;, &#39;q2&#39;, &#39;q3&#39;}&#45;&gt;{&#39;q0&#39;, &#39;q1&#39;, &#39;q3&#39;}</title>
<path fill="none" stroke="black" d="M80.6,-272.59C77.34,-255.89 74.39,-237.89 72.75,-221.06 70.35,-196.5 69.83,-169.61 70.14,-145.34"/>
<polygon fill="black" stroke="black" points="73.64,-145.17 70.32,-135.11 66.64,-145.05 73.64,-145.17"/>
<text text-anchor="middle" x="76.25" y="-198.86" font-family="Times,serif" font-size="14.00">1</text>
</g>
<!-- {&#39;q0&#39;, &#39;q1&#39;, &#39;q3&#39;}&#45;&gt;{&#39;q0&#39;, &#39;q2&#39;, &#39;q3&#39;} -->
<g id="edge8" class="edge">
<title>{&#39;q0&#39;, &#39;q1&#39;, &#39;q3&#39;}&#45;&gt;{&#39;q0&#39;, &#39;q2&#39;, &#39;q3&#39;}</title>
<path fill="none" stroke="black" d="M79.2,-135.21C82.32,-173.32 86.24,-221.26 89.48,-260.92"/>
<polygon fill="black" stroke="black" points="86.01,-261.4 90.31,-271.08 92.98,-260.83 86.01,-261.4"/>
<text text-anchor="middle" x="90.25" y="-198.86" font-family="Times,serif" font-size="14.00">0</text>
</g>
<!-- {&#39;q0&#39;, &#39;q1&#39;, &#39;q3&#39;}&#45;&gt;{&#39;q0&#39;, &#39;q1&#39;, &#39;q3&#39;} -->
<g id="edge9" class="edge">
<title>{&#39;q0&#39;, &#39;q1&#39;, &#39;q3&#39;}&#45;&gt;{&#39;q0&#39;, &#39;q1&#39;, &#39;q3&#39;}</title>
<path fill="none" stroke="black" d="M139.37,-83.77C151.09,-81.66 159.28,-76.25 159.28,-67.53 159.28,-61.54 155.41,-57.11 149.18,-54.24"/>
<polygon fill="black" stroke="black" points="149.96,-50.82 139.37,-51.29 147.94,-57.52 149.96,-50.82"/>
<text text-anchor="middle" x="162.78" y="-63.33" font-family="Times,serif" font-size="14.00">1</text>
</g>
</g>
</svg>
