<?xml version="1.0" encoding="UTF-8" standalone="no"?>
<!DOCTYPE svg PUBLIC "-//W3C//DTD SVG 1.1//EN"
 "http://www.w3.org/Graphics/SVG/1.1/DTD/svg11.dtd">
<!-- Generated by graphviz version 2.42.3 (20191010.1750)
 -->
<!-- Title: %3 Pages: 1 -->
<svg width="150pt" height="322pt"
 viewBox="0.00 0.00 149.63 322.25" xmlns="http://www.w3.org/2000/svg" xmlns:xlink="http://www.w3.org/1999/xlink">
<g id="graph0" class="graph" transform="scale(1 1) rotate(0) translate(4 318.25)">
<title>%3</title>
<polygon fill="white" stroke="transparent" points="-4,4 -4,-318.25 145.63,-318.25 145.63,4 -4,4"/>
<!-- fake -->
<g id="node1" class="node">
<title>fake</title>
</g>
<!-- {&#39;q0&#39;} -->
<g id="node4" class="node">
<title>{&#39;q0&#39;}</title>
<ellipse fill="none" stroke="black" cx="70.63" cy="-223.25" rx="30.75" ry="18"/>
<text text-anchor="middle" x="70.63" y="-219.05" font-family="Times,serif" font-size="14.00">{&#39;q0&#39;}</text>
</g>
<!-- fake&#45;&gt;{&#39;q0&#39;} -->
<g id="edge1" class="edge">
<title>fake&#45;&gt;{&#39;q0&#39;}</title>
<path fill="none" stroke="black" stroke-width="2" d="M70.63,-278.07C70.63,-270.04 70.63,-260.3 70.63,-251.32"/>
<polygon fill="black" stroke="black" stroke-width="2" points="74.13,-251.28 70.63,-241.28 67.13,-251.28 74.13,-251.28"/>
</g>
<!-- {&#39;q1&#39;} -->
<g id="node2" class="node">
<title>{&#39;q1&#39;}</title>
<ellipse fill="none" stroke="black" cx="34.63" cy="-120.63" rx="30.74" ry="30.74"/>
<ellipse fill="none" stroke="black" cx="34.63" cy="-120.63" rx="34.75" ry="34.75"/>
<text text-anchor="middle" x="34.63" y="-116.43" font-family="Times,serif" font-size="14.00">{&#39;q1&#39;}</text>
</g>
<!-- set() -->
<g id="node3" class="node">
<title>set()</title>
<ellipse fill="none" stroke="black" cx="64.63" cy="-18" rx="27" ry="18"/>
<text text-anchor="middle" x="64.63" y="-13.8" font-family="Times,serif" font-size="14.00">set()</text>
</g>
<!-- {&#39;q1&#39;}&#45;&gt;set() -->
<g id="edge6" class="edge">
<title>{&#39;q1&#39;}&#45;&gt;set()</title>
<path fill="none" stroke="black" d="M32.29,-85.8C32.58,-75.34 33.98,-63.96 37.63,-54 39.21,-49.67 41.55,-45.44 44.18,-41.51"/>
<polygon fill="black" stroke="black" points="47.04,-43.53 50.28,-33.44 41.46,-39.31 47.04,-43.53"/>
<text text-anchor="middle" x="41.13" y="-56.8" font-family="Times,serif" font-size="14.00">0</text>
</g>
<!-- {&#39;q1&#39;}&#45;&gt;set() -->
<g id="edge7" class="edge">
<title>{&#39;q1&#39;}&#45;&gt;set()</title>
<path fill="none" stroke="black" d="M44.28,-87.23C48.31,-73.72 52.93,-58.23 56.75,-45.43"/>
<polygon fill="black" stroke="black" points="60.11,-46.41 59.61,-35.82 53.4,-44.41 60.11,-46.41"/>
<text text-anchor="middle" x="58.13" y="-56.8" font-family="Times,serif" font-size="14.00">1</text>
</g>
<!-- set()&#45;&gt;set() -->
<g id="edge4" class="edge">
<title>set()&#45;&gt;set()</title>
<path fill="none" stroke="black" d="M91.42,-21.93C101.41,-22.06 109.63,-20.75 109.63,-18 109.63,-16.28 106.42,-15.13 101.57,-14.53"/>
<polygon fill="black" stroke="black" points="101.57,-11.03 91.42,-14.07 101.25,-18.02 101.57,-11.03"/>
<text text-anchor="middle" x="113.13" y="-13.8" font-family="Times,serif" font-size="14.00">0</text>
</g>
<!-- set()&#45;&gt;set() -->
<g id="edge5" class="edge">
<title>set()&#45;&gt;set()</title>
<path fill="none" stroke="black" d="M89.86,-24.94C108.67,-27.37 127.63,-25.05 127.63,-18 127.63,-12.21 114.87,-9.62 99.9,-10.21"/>
<polygon fill="black" stroke="black" points="99.53,-6.73 89.86,-11.06 100.11,-13.7 99.53,-6.73"/>
<text text-anchor="middle" x="131.13" y="-13.8" font-family="Times,serif" font-size="14.00">1</text>
</g>
<!-- {&#39;q0&#39;}&#45;&gt;{&#39;q1&#39;} -->
<g id="edge3" class="edge">
<title>{&#39;q0&#39;}&#45;&gt;{&#39;q1&#39;}</title>
<path fill="none" stroke="black" d="M64.52,-205.18C60.37,-193.59 54.7,-177.74 49.41,-162.96"/>
<polygon fill="black" stroke="black" points="52.68,-161.69 46.01,-153.45 46.09,-164.05 52.68,-161.69"/>
<text text-anchor="middle" x="62.13" y="-176.05" font-family="Times,serif" font-size="14.00">1</text>
</g>
<!-- {&#39;q0&#39;}&#45;&gt;set() -->
<g id="edge2" class="edge">
<title>{&#39;q0&#39;}&#45;&gt;set()</title>
<path fill="none" stroke="black" d="M73.42,-205.01C77.21,-179.11 83.04,-128.66 78.63,-86 77.25,-72.65 74.36,-58.04 71.56,-45.88"/>
<polygon fill="black" stroke="black" points="74.91,-44.83 69.17,-35.92 68.1,-46.46 74.91,-44.83"/>
<text text-anchor="middle" x="84.13" y="-116.43" font-family="Times,serif" font-size="14.00">0</text>
</g>
</g>
</svg>
